<?xml version="1.0" encoding="UTF-8" standalone="no" ?>
<!DOCTYPE sesx>
<sesx version="1.0">

  <session appVersion="6.0" audioChannelType="stereo" bitDepth="16" duration="12561407" sampleRate="44100">
    <name>Taps.sesx</name>
    <tracks>
      <audioTrack automationLaneOpenState="false" id="10001" index="1" select="true" visible="true">
        <trackParameters trackHeight="293" trackHue="-1,00">
          <name>Plast taps</name>
        </trackParameters>
        <trackAudioParameters audioChannelType="stereo" automationMode="1" monitoring="false" recordArmed="true" solo="true" soloSafe="false">
          <trackOutput outputID="10000" type="trackID"/>
          <trackInput inputID="1"/>
          <component componentID="Audition.Fader" id="trackFader" name="volume" powered="true">
            <parameter index="0" name="volume" parameterValue="1"/>
            <parameter index="1" name="static gain" parameterValue="1"/>
          </component>
          <component componentID="Audition.Mute" id="trackMute" name="Mute" powered="true">
            <parameter index="0" parameterValue="0"/>
            <parameter index="1" name="mute" parameterValue="0"/>
          </component>
          <component componentID="Audition.StereoPanner" id="trackPan" name="StereoPanner" powered="true">
            <parameter index="0" name="Pan" parameterValue="0"/>
          </component>
          <component componentID="Audition.EQ" id="trackEQ" name="EQ" powered="false">
            <parameter index="0" name="Low Shelf Frequency" parameterValue="0.0009079"/>
            <parameter index="1" name="Low Shelf Gain" parameterValue="0.5"/>
            <parameter index="2" name="High Shelf Frequency" parameterValue="0.8161598"/>
            <parameter index="3" name="High Shelf Gain" parameterValue="0.5"/>
            <parameter index="4" name="EQ Band 1 Center Frequency" parameterValue="0.0013618"/>
            <parameter index="5" name="EQ Band 1 Q" parameterValue="0.0002"/>
            <parameter index="6" name="EQ Band 1 Gain" parameterValue="0.5"/>
            <parameter index="7" name="EQ Band 1 Enable" parameterValue="1"/>
            <parameter index="8" name="EQ Band 2 Center Frequency" parameterValue="0.0081707"/>
            <parameter index="9" name="EQ Band 2 Q" parameterValue="0.0002"/>
            <parameter index="10" name="EQ Band 2 Gain" parameterValue="0.5"/>
            <parameter index="11" name="EQ Band 2 Enable" parameterValue="1"/>
            <parameter index="12" name="EQ Band 3 Center Frequency" parameterValue="0.0354063"/>
            <parameter index="13" name="EQ Band 3 Q" parameterValue="0.0002"/>
            <parameter index="14" name="EQ Band 3 Gain" parameterValue="0.5"/>
            <parameter index="15" name="EQ Band 3 Enable" parameterValue="1"/>
            <parameter index="16" name="EQ Band 4 Center Frequency" parameterValue="0.1443486"/>
            <parameter index="17" name="EQ Band 4 Q" parameterValue="0.0002"/>
            <parameter index="18" name="EQ Band 4 Gain" parameterValue="0.5"/>
            <parameter index="19" name="EQ Band 4 Enable" parameterValue="1"/>
            <parameter index="20" name="EQ Band 5 Center Frequency" parameterValue="0.580118"/>
            <parameter index="21" name="EQ Band 5 Q" parameterValue="0.0002"/>
            <parameter index="22" name="EQ Band 5 Gain" parameterValue="0.5"/>
            <parameter index="23" name="EQ Band 5 Enable" parameterValue="1"/>
            <parameter index="24" name="Master Gain" parameterValue="0.6666667"/>
            <parameter index="25" name="ConstantQ" parameterValue="1"/>
            <parameter index="26" name="Low Shelf Filter Order" parameterValue="0"/>
            <parameter index="27" name="High Shelf Filter Order" parameterValue="0"/>
            <parameter index="28" name="Ultra-Quiet Mode" parameterValue="0"/>
            <parameter index="29" name="Low Shelf Enable" parameterValue="1"/>
            <parameter index="30" name="High Shelf Enable" parameterValue="1"/>
            <parameter index="31" name="Original Sample Rate" parameterValue="0.2296875"/>
            <parameter index="32" name="EQ Band 1 Bandwidth" parameterValue="0.0025"/>
            <parameter index="33" name="EQ Band 2 Bandwidth" parameterValue="0.01"/>
            <parameter index="34" name="EQ Band 3 Bandwidth" parameterValue="0.04"/>
            <parameter index="35" name="EQ Band 4 Bandwidth" parameterValue="0.16"/>
            <parameter index="36" name="EQ Band 5 Bandwidth" parameterValue="0.64"/>
            <parameter index="37" name="High-Pass Filter Enable" parameterValue="0"/>
            <parameter index="38" name="High-Pass Cutoff Frequency" parameterValue="0"/>
            <parameter index="39" name="High-Pass Slope" parameterValue="4"/>
            <parameter index="40" name="Low-Pass Filter Enable" parameterValue="0"/>
            <parameter index="41" name="Low-Pass Cutoff Frequency" parameterValue="0.906945"/>
            <parameter index="42" name="Low-Pass Slope" parameterValue="4"/>
            <parameter index="43" name="Bypass" parameterValue="0"/>
            <parameter index="44" name="LowGraphRange" parameterValue="1"/>
          </component>
        </trackAudioParameters>
        <editParameter parameterIndex="0" slotIndex="4294967280"/>
        <sendList>
          <sendSlot preFader="false" sendOutputID="0" slotIndex="0">
            <component id="sendComponent" powered="false">
              <parameter index="0" name="Power On/Off" parameterValue="0"/>
              <parameter index="1" name="Level" parameterValue="0"/>
            </component>
            <component id="sendPan" powered="true"/>
          </sendSlot>
          <sendSlot preFader="false" sendOutputID="0" slotIndex="1">
            <component id="sendComponent" powered="false">
              <parameter index="0" name="Power On/Off" parameterValue="0"/>
              <parameter index="1" name="Level" parameterValue="0"/>
            </component>
            <component id="sendPan" powered="true"/>
          </sendSlot>
          <sendSlot preFader="false" sendOutputID="0" slotIndex="2">
            <component id="sendComponent" powered="false">
              <parameter index="0" name="Power On/Off" parameterValue="0"/>
              <parameter index="1" name="Level" parameterValue="0"/>
            </component>
            <component id="sendPan" powered="true"/>
          </sendSlot>
          <sendSlot preFader="false" sendOutputID="0" slotIndex="3">
            <component id="sendComponent" powered="false">
              <parameter index="0" name="Power On/Off" parameterValue="0"/>
              <parameter index="1" name="Level" parameterValue="0"/>
            </component>
            <component id="sendPan" powered="true"/>
          </sendSlot>
          <sendSlot preFader="false" sendOutputID="0" slotIndex="4">
            <component id="sendComponent" powered="false">
              <parameter index="0" name="Power On/Off" parameterValue="0"/>
              <parameter index="1" name="Level" parameterValue="0"/>
            </component>
            <component id="sendPan" powered="true"/>
          </sendSlot>
          <sendSlot preFader="false" sendOutputID="0" slotIndex="5">
            <component id="sendComponent" powered="false">
              <parameter index="0" name="Power On/Off" parameterValue="0"/>
              <parameter index="1" name="Level" parameterValue="0"/>
            </component>
            <component id="sendPan" powered="true"/>
          </sendSlot>
          <sendSlot preFader="false" sendOutputID="0" slotIndex="6">
            <component id="sendComponent" powered="false">
              <parameter index="0" name="Power On/Off" parameterValue="0"/>
              <parameter index="1" name="Level" parameterValue="0"/>
            </component>
            <component id="sendPan" powered="true"/>
          </sendSlot>
          <sendSlot preFader="false" sendOutputID="0" slotIndex="7">
            <component id="sendComponent" powered="false">
              <parameter index="0" name="Power On/Off" parameterValue="0"/>
              <parameter index="1" name="Level" parameterValue="0"/>
            </component>
            <component id="sendPan" powered="true"/>
          </sendSlot>
          <sendSlot preFader="false" sendOutputID="0" slotIndex="8">
            <component id="sendComponent" powered="false">
              <parameter index="0" name="Power On/Off" parameterValue="0"/>
              <parameter index="1" name="Level" parameterValue="0"/>
            </component>
            <component id="sendPan" powered="true"/>
          </sendSlot>
          <sendSlot preFader="false" sendOutputID="0" slotIndex="9">
            <component id="sendComponent" powered="false">
              <parameter index="0" name="Power On/Off" parameterValue="0"/>
              <parameter index="1" name="Level" parameterValue="0"/>
            </component>
            <component id="sendPan" powered="true"/>
          </sendSlot>
          <sendSlot preFader="false" sendOutputID="0" slotIndex="10">
            <component id="sendComponent" powered="false">
              <parameter index="0" name="Power On/Off" parameterValue="0"/>
              <parameter index="1" name="Level" parameterValue="0"/>
            </component>
            <component id="sendPan" powered="true"/>
          </sendSlot>
          <sendSlot preFader="false" sendOutputID="0" slotIndex="11">
            <component id="sendComponent" powered="false">
              <parameter index="0" name="Power On/Off" parameterValue="0"/>
              <parameter index="1" name="Level" parameterValue="0"/>
            </component>
            <component id="sendPan" powered="true"/>
          </sendSlot>
          <sendSlot preFader="false" sendOutputID="0" slotIndex="12">
            <component id="sendComponent" powered="false">
              <parameter index="0" name="Power On/Off" parameterValue="0"/>
              <parameter index="1" name="Level" parameterValue="0"/>
            </component>
            <component id="sendPan" powered="true"/>
          </sendSlot>
          <sendSlot preFader="false" sendOutputID="0" slotIndex="13">
            <component id="sendComponent" powered="false">
              <parameter index="0" name="Power On/Off" parameterValue="0"/>
              <parameter index="1" name="Level" parameterValue="0"/>
            </component>
            <component id="sendPan" powered="true"/>
          </sendSlot>
          <sendSlot preFader="false" sendOutputID="0" slotIndex="14">
            <component id="sendComponent" powered="false">
              <parameter index="0" name="Power On/Off" parameterValue="0"/>
              <parameter index="1" name="Level" parameterValue="0"/>
            </component>
            <component id="sendPan" powered="true"/>
          </sendSlot>
          <sendSlot preFader="false" sendOutputID="0" slotIndex="15">
            <component id="sendComponent" powered="false">
              <parameter index="0" name="Power On/Off" parameterValue="0"/>
              <parameter index="1" name="Level" parameterValue="0"/>
            </component>
            <component id="sendPan" powered="true"/>
          </sendSlot>
        </sendList>
        <audioClip clipAutoCrossfade="true" crossFadeHeadClipID="-1" crossFadeTailClipID="-1" endPoint="871424" fileID="0" hue="-1" id="0" lockedInTime="false" looped="false" name="Plast taps_005" offline="false" select="false" sourceInPoint="0" sourceOutPoint="871424" startPoint="0" zOrder="7">
          <component componentID="Audition.Fader" id="clipGain" name="volume" powered="true">
            <parameter index="0" name="volume" parameterValue="1"/>
            <parameter index="1" name="static gain" parameterValue="1"/>
          </component>
          <component componentID="Audition.Mute" id="clipMute" name="Mute" powered="true">
            <parameter index="0" parameterValue="0"/>
            <parameter index="1" name="mute" parameterValue="0"/>
          </component>
          <component componentID="Audition.StereoPanner" id="clipPan" name="StereoPanner" powered="true">
            <parameter index="0" name="Pan" parameterValue="0"/>
          </component>
          <fadeIn crossFadeLinkType="linkedAsymmetric" endPoint="0" shape="0" startPoint="0" type="cosine"/>
          <fadeOut crossFadeLinkType="linkedAsymmetric" endPoint="871424" shape="0" startPoint="871424" type="cosine"/>
          <take sourceInPoint="0"/>
          <editParameter parameterIndex="0" slotIndex="4294967281"/>
          <editParameter parameterIndex="0" slotIndex="4294967280"/>
          <channelMap>
            <channel index="0" sourceIndex="0"/>
            <channel index="1" sourceIndex="1"/>
          </channelMap>
        </audioClip>
        <audioClip clipAutoCrossfade="true" crossFadeHeadClipID="-1" crossFadeTailClipID="-1" endPoint="1609779" fileID="14" hue="-1" id="1" lockedInTime="false" looped="false" name="Plast taps_021" offline="false" select="false" sourceInPoint="0" sourceOutPoint="606208" startPoint="1003571" zOrder="8">
          <component componentID="Audition.Fader" id="clipGain" name="volume" powered="true">
            <parameter index="0" name="volume" parameterValue="1"/>
            <parameter index="1" name="static gain" parameterValue="1"/>
          </component>
          <component componentID="Audition.Mute" id="clipMute" name="Mute" powered="true">
            <parameter index="0" parameterValue="0"/>
            <parameter index="1" name="mute" parameterValue="0"/>
          </component>
          <component componentID="Audition.StereoPanner" id="clipPan" name="StereoPanner" powered="true">
            <parameter index="0" name="Pan" parameterValue="0"/>
          </component>
          <fadeIn crossFadeLinkType="linkedAsymmetric" endPoint="0" shape="0" startPoint="0" type="cosine"/>
          <fadeOut crossFadeLinkType="linkedAsymmetric" endPoint="606208" shape="0" startPoint="606208" type="cosine"/>
          <take sourceInPoint="0"/>
          <editParameter parameterIndex="0" slotIndex="4294967281"/>
          <editParameter parameterIndex="0" slotIndex="4294967280"/>
          <channelMap>
            <channel index="0" sourceIndex="0"/>
            <channel index="1" sourceIndex="1"/>
          </channelMap>
        </audioClip>
        <audioClip clipAutoCrossfade="true" crossFadeHeadClipID="-1" crossFadeTailClipID="-1" endPoint="2718052" fileID="15" hue="-1" id="2" lockedInTime="false" looped="false" name="Plast taps_022" offline="false" select="false" sourceInPoint="0" sourceOutPoint="1077248" startPoint="1640804" zOrder="9">
          <component componentID="Audition.Fader" id="clipGain" name="volume" powered="true">
            <parameter index="0" name="volume" parameterValue="1"/>
            <parameter index="1" name="static gain" parameterValue="1"/>
          </component>
          <component componentID="Audition.Mute" id="clipMute" name="Mute" powered="true">
            <parameter index="0" parameterValue="0"/>
            <parameter index="1" name="mute" parameterValue="0"/>
          </component>
          <component componentID="Audition.StereoPanner" id="clipPan" name="StereoPanner" powered="true">
            <parameter index="0" name="Pan" parameterValue="0"/>
          </component>
          <fadeIn crossFadeLinkType="linkedAsymmetric" endPoint="0" shape="0" startPoint="0" type="cosine"/>
          <fadeOut crossFadeLinkType="linkedAsymmetric" endPoint="1077248" shape="0" startPoint="1077248" type="cosine"/>
          <take sourceInPoint="0"/>
          <editParameter parameterIndex="0" slotIndex="4294967281"/>
          <editParameter parameterIndex="0" slotIndex="4294967280"/>
          <channelMap>
            <channel index="0" sourceIndex="0"/>
            <channel index="1" sourceIndex="1"/>
          </channelMap>
        </audioClip>
        <audioClip clipAutoCrossfade="true" crossFadeHeadClipID="-1" crossFadeTailClipID="-1" endPoint="4342489" fileID="16" hue="-1" id="3" lockedInTime="false" looped="false" name="Plast taps_023" offline="false" select="false" sourceInPoint="0" sourceOutPoint="1533952" startPoint="2808537" zOrder="12">
          <component componentID="Audition.Fader" id="clipGain" name="volume" powered="true">
            <parameter index="0" name="volume" parameterValue="1"/>
            <parameter index="1" name="static gain" parameterValue="1"/>
          </component>
          <component componentID="Audition.Mute" id="clipMute" name="Mute" powered="true">
            <parameter index="0" parameterValue="0"/>
            <parameter index="1" name="mute" parameterValue="0"/>
          </component>
          <component componentID="Audition.StereoPanner" id="clipPan" name="StereoPanner" powered="true">
            <parameter index="0" name="Pan" parameterValue="0"/>
          </component>
          <fadeIn crossFadeLinkType="linkedAsymmetric" endPoint="0" shape="0" startPoint="0" type="cosine"/>
          <fadeOut crossFadeLinkType="linkedAsymmetric" endPoint="1533952" shape="0" startPoint="1533952" type="cosine"/>
          <take sourceInPoint="0"/>
          <editParameter parameterIndex="0" slotIndex="4294967281"/>
          <editParameter parameterIndex="0" slotIndex="4294967280"/>
          <channelMap>
            <channel index="0" sourceIndex="0"/>
            <channel index="1" sourceIndex="1"/>
          </channelMap>
        </audioClip>
        <audioClip clipAutoCrossfade="true" crossFadeHeadClipID="-1" crossFadeTailClipID="-1" endPoint="6499808" fileID="26" hue="-1" id="4" lockedInTime="false" looped="false" name="Plast taps_033" offline="false" select="true" sourceInPoint="0" sourceOutPoint="1888256" startPoint="4611552" zOrder="15">
          <component componentID="Audition.Fader" id="clipGain" name="volume" powered="true">
            <parameter index="0" name="volume" parameterValue="1"/>
            <parameter index="1" name="static gain" parameterValue="1"/>
          </component>
          <component componentID="Audition.Mute" id="clipMute" name="Mute" powered="true">
            <parameter index="0" parameterValue="0"/>
            <parameter index="1" name="mute" parameterValue="0"/>
          </component>
          <component componentID="Audition.StereoPanner" id="clipPan" name="StereoPanner" powered="true">
            <parameter index="0" name="Pan" parameterValue="0"/>
          </component>
          <fadeIn crossFadeLinkType="linkedAsymmetric" endPoint="0" shape="0" startPoint="0" type="cosine"/>
          <fadeOut crossFadeLinkType="linkedAsymmetric" endPoint="1888256" shape="0" startPoint="1888256" type="cosine"/>
          <take sourceInPoint="0"/>
          <editParameter parameterIndex="0" slotIndex="4294967281"/>
          <editParameter parameterIndex="0" slotIndex="4294967280"/>
          <channelMap>
            <channel index="0" sourceIndex="0"/>
            <channel index="1" sourceIndex="1"/>
          </channelMap>
        </audioClip>
      </audioTrack>
      <audioTrack automationLaneOpenState="false" id="10002" index="2" select="false" visible="true">
        <trackParameters trackHeight="293" trackHue="-1,00">
          <name>Plast dra</name>
        </trackParameters>
        <trackAudioParameters audioChannelType="stereo" automationMode="1" monitoring="false" recordArmed="false" solo="false" soloSafe="false">
          <trackOutput outputID="10000" type="trackID"/>
          <trackInput inputID="1"/>
          <component componentID="Audition.Fader" id="trackFader" name="volume" powered="true">
            <parameter index="0" name="volume" parameterValue="1"/>
            <parameter index="1" name="static gain" parameterValue="1"/>
          </component>
          <component componentID="Audition.Mute" id="trackMute" name="Mute" powered="true">
            <parameter index="0" parameterValue="1"/>
            <parameter index="1" name="mute" parameterValue="1"/>
          </component>
          <component componentID="Audition.StereoPanner" id="trackPan" name="StereoPanner" powered="true">
            <parameter index="0" name="Pan" parameterValue="0"/>
          </component>
          <component componentID="Audition.EQ" id="trackEQ" name="EQ" powered="false">
            <parameter index="0" name="Low Shelf Frequency" parameterValue="0.0009079"/>
            <parameter index="1" name="Low Shelf Gain" parameterValue="0.5"/>
            <parameter index="2" name="High Shelf Frequency" parameterValue="0.8161598"/>
            <parameter index="3" name="High Shelf Gain" parameterValue="0.5"/>
            <parameter index="4" name="EQ Band 1 Center Frequency" parameterValue="0.0013618"/>
            <parameter index="5" name="EQ Band 1 Q" parameterValue="0.0002"/>
            <parameter index="6" name="EQ Band 1 Gain" parameterValue="0.5"/>
            <parameter index="7" name="EQ Band 1 Enable" parameterValue="1"/>
            <parameter index="8" name="EQ Band 2 Center Frequency" parameterValue="0.0081707"/>
            <parameter index="9" name="EQ Band 2 Q" parameterValue="0.0002"/>
            <parameter index="10" name="EQ Band 2 Gain" parameterValue="0.5"/>
            <parameter index="11" name="EQ Band 2 Enable" parameterValue="1"/>
            <parameter index="12" name="EQ Band 3 Center Frequency" parameterValue="0.0354063"/>
            <parameter index="13" name="EQ Band 3 Q" parameterValue="0.0002"/>
            <parameter index="14" name="EQ Band 3 Gain" parameterValue="0.5"/>
            <parameter index="15" name="EQ Band 3 Enable" parameterValue="1"/>
            <parameter index="16" name="EQ Band 4 Center Frequency" parameterValue="0.1443486"/>
            <parameter index="17" name="EQ Band 4 Q" parameterValue="0.0002"/>
            <parameter index="18" name="EQ Band 4 Gain" parameterValue="0.5"/>
            <parameter index="19" name="EQ Band 4 Enable" parameterValue="1"/>
            <parameter index="20" name="EQ Band 5 Center Frequency" parameterValue="0.580118"/>
            <parameter index="21" name="EQ Band 5 Q" parameterValue="0.0002"/>
            <parameter index="22" name="EQ Band 5 Gain" parameterValue="0.5"/>
            <parameter index="23" name="EQ Band 5 Enable" parameterValue="1"/>
            <parameter index="24" name="Master Gain" parameterValue="0.6666667"/>
            <parameter index="25" name="ConstantQ" parameterValue="1"/>
            <parameter index="26" name="Low Shelf Filter Order" parameterValue="0"/>
            <parameter index="27" name="High Shelf Filter Order" parameterValue="0"/>
            <parameter index="28" name="Ultra-Quiet Mode" parameterValue="0"/>
            <parameter index="29" name="Low Shelf Enable" parameterValue="1"/>
            <parameter index="30" name="High Shelf Enable" parameterValue="1"/>
            <parameter index="31" name="Original Sample Rate" parameterValue="0.2296875"/>
            <parameter index="32" name="EQ Band 1 Bandwidth" parameterValue="0.0025"/>
            <parameter index="33" name="EQ Band 2 Bandwidth" parameterValue="0.01"/>
            <parameter index="34" name="EQ Band 3 Bandwidth" parameterValue="0.04"/>
            <parameter index="35" name="EQ Band 4 Bandwidth" parameterValue="0.16"/>
            <parameter index="36" name="EQ Band 5 Bandwidth" parameterValue="0.64"/>
            <parameter index="37" name="High-Pass Filter Enable" parameterValue="0"/>
            <parameter index="38" name="High-Pass Cutoff Frequency" parameterValue="0"/>
            <parameter index="39" name="High-Pass Slope" parameterValue="4"/>
            <parameter index="40" name="Low-Pass Filter Enable" parameterValue="0"/>
            <parameter index="41" name="Low-Pass Cutoff Frequency" parameterValue="0.906945"/>
            <parameter index="42" name="Low-Pass Slope" parameterValue="4"/>
            <parameter index="43" name="Bypass" parameterValue="0"/>
            <parameter index="44" name="LowGraphRange" parameterValue="1"/>
          </component>
        </trackAudioParameters>
        <editParameter parameterIndex="0" slotIndex="4294967280"/>
        <sendList>
          <sendSlot preFader="false" sendOutputID="0" slotIndex="0">
            <component id="sendComponent" powered="false">
              <parameter index="0" name="Power On/Off" parameterValue="0"/>
              <parameter index="1" name="Level" parameterValue="0"/>
            </component>
            <component id="sendPan" powered="true"/>
          </sendSlot>
          <sendSlot preFader="false" sendOutputID="0" slotIndex="1">
            <component id="sendComponent" powered="false">
              <parameter index="0" name="Power On/Off" parameterValue="0"/>
              <parameter index="1" name="Level" parameterValue="0"/>
            </component>
            <component id="sendPan" powered="true"/>
          </sendSlot>
          <sendSlot preFader="false" sendOutputID="0" slotIndex="2">
            <component id="sendComponent" powered="false">
              <parameter index="0" name="Power On/Off" parameterValue="0"/>
              <parameter index="1" name="Level" parameterValue="0"/>
            </component>
            <component id="sendPan" powered="true"/>
          </sendSlot>
          <sendSlot preFader="false" sendOutputID="0" slotIndex="3">
            <component id="sendComponent" powered="false">
              <parameter index="0" name="Power On/Off" parameterValue="0"/>
              <parameter index="1" name="Level" parameterValue="0"/>
            </component>
            <component id="sendPan" powered="true"/>
          </sendSlot>
          <sendSlot preFader="false" sendOutputID="0" slotIndex="4">
            <component id="sendComponent" powered="false">
              <parameter index="0" name="Power On/Off" parameterValue="0"/>
              <parameter index="1" name="Level" parameterValue="0"/>
            </component>
            <component id="sendPan" powered="true"/>
          </sendSlot>
          <sendSlot preFader="false" sendOutputID="0" slotIndex="5">
            <component id="sendComponent" powered="false">
              <parameter index="0" name="Power On/Off" parameterValue="0"/>
              <parameter index="1" name="Level" parameterValue="0"/>
            </component>
            <component id="sendPan" powered="true"/>
          </sendSlot>
          <sendSlot preFader="false" sendOutputID="0" slotIndex="6">
            <component id="sendComponent" powered="false">
              <parameter index="0" name="Power On/Off" parameterValue="0"/>
              <parameter index="1" name="Level" parameterValue="0"/>
            </component>
            <component id="sendPan" powered="true"/>
          </sendSlot>
          <sendSlot preFader="false" sendOutputID="0" slotIndex="7">
            <component id="sendComponent" powered="false">
              <parameter index="0" name="Power On/Off" parameterValue="0"/>
              <parameter index="1" name="Level" parameterValue="0"/>
            </component>
            <component id="sendPan" powered="true"/>
          </sendSlot>
          <sendSlot preFader="false" sendOutputID="0" slotIndex="8">
            <component id="sendComponent" powered="false">
              <parameter index="0" name="Power On/Off" parameterValue="0"/>
              <parameter index="1" name="Level" parameterValue="0"/>
            </component>
            <component id="sendPan" powered="true"/>
          </sendSlot>
          <sendSlot preFader="false" sendOutputID="0" slotIndex="9">
            <component id="sendComponent" powered="false">
              <parameter index="0" name="Power On/Off" parameterValue="0"/>
              <parameter index="1" name="Level" parameterValue="0"/>
            </component>
            <component id="sendPan" powered="true"/>
          </sendSlot>
          <sendSlot preFader="false" sendOutputID="0" slotIndex="10">
            <component id="sendComponent" powered="false">
              <parameter index="0" name="Power On/Off" parameterValue="0"/>
              <parameter index="1" name="Level" parameterValue="0"/>
            </component>
            <component id="sendPan" powered="true"/>
          </sendSlot>
          <sendSlot preFader="false" sendOutputID="0" slotIndex="11">
            <component id="sendComponent" powered="false">
              <parameter index="0" name="Power On/Off" parameterValue="0"/>
              <parameter index="1" name="Level" parameterValue="0"/>
            </component>
            <component id="sendPan" powered="true"/>
          </sendSlot>
          <sendSlot preFader="false" sendOutputID="0" slotIndex="12">
            <component id="sendComponent" powered="false">
              <parameter index="0" name="Power On/Off" parameterValue="0"/>
              <parameter index="1" name="Level" parameterValue="0"/>
            </component>
            <component id="sendPan" powered="true"/>
          </sendSlot>
          <sendSlot preFader="false" sendOutputID="0" slotIndex="13">
            <component id="sendComponent" powered="false">
              <parameter index="0" name="Power On/Off" parameterValue="0"/>
              <parameter index="1" name="Level" parameterValue="0"/>
            </component>
            <component id="sendPan" powered="true"/>
          </sendSlot>
          <sendSlot preFader="false" sendOutputID="0" slotIndex="14">
            <component id="sendComponent" powered="false">
              <parameter index="0" name="Power On/Off" parameterValue="0"/>
              <parameter index="1" name="Level" parameterValue="0"/>
            </component>
            <component id="sendPan" powered="true"/>
          </sendSlot>
          <sendSlot preFader="false" sendOutputID="0" slotIndex="15">
            <component id="sendComponent" powered="false">
              <parameter index="0" name="Power On/Off" parameterValue="0"/>
              <parameter index="1" name="Level" parameterValue="0"/>
            </component>
            <component id="sendPan" powered="true"/>
          </sendSlot>
        </sendList>
        <audioClip clipAutoCrossfade="true" crossFadeHeadClipID="-1" crossFadeTailClipID="-1" endPoint="1501184" fileID="1" hue="-1" id="0" lockedInTime="false" looped="false" name="Plast dra_006" offline="false" select="false" sourceInPoint="0" sourceOutPoint="1501184" startPoint="0" zOrder="3">
          <component componentID="Audition.Fader" id="clipGain" name="volume" powered="true">
            <parameter index="0" name="volume" parameterValue="1"/>
            <parameter index="1" name="static gain" parameterValue="1"/>
          </component>
          <component componentID="Audition.Mute" id="clipMute" name="Mute" powered="true">
            <parameter index="0" parameterValue="0"/>
            <parameter index="1" name="mute" parameterValue="0"/>
          </component>
          <component componentID="Audition.StereoPanner" id="clipPan" name="StereoPanner" powered="true">
            <parameter index="0" name="Pan" parameterValue="0"/>
          </component>
          <fadeIn crossFadeLinkType="linkedAsymmetric" endPoint="0" shape="0" startPoint="0" type="cosine"/>
          <fadeOut crossFadeLinkType="linkedAsymmetric" endPoint="1501184" shape="0" startPoint="1501184" type="cosine"/>
          <take sourceInPoint="0"/>
          <editParameter parameterIndex="0" slotIndex="4294967281"/>
          <editParameter parameterIndex="0" slotIndex="4294967280"/>
          <channelMap>
            <channel index="0" sourceIndex="0"/>
            <channel index="1" sourceIndex="1"/>
          </channelMap>
        </audioClip>
      </audioTrack>
      <audioTrack automationLaneOpenState="false" id="10003" index="3" select="false" visible="true">
        <trackParameters trackHeight="293" trackHue="-1,00">
          <name>Fläkt</name>
        </trackParameters>
        <trackAudioParameters audioChannelType="stereo" automationMode="1" monitoring="false" recordArmed="false" solo="false" soloSafe="false">
          <trackOutput outputID="10000" type="trackID"/>
          <trackInput inputID="1"/>
          <component componentID="Audition.Fader" id="trackFader" name="volume" powered="true">
            <parameter index="0" name="volume" parameterValue="1"/>
            <parameter index="1" name="static gain" parameterValue="1"/>
          </component>
          <component componentID="Audition.Mute" id="trackMute" name="Mute" powered="true">
            <parameter index="0" parameterValue="1"/>
            <parameter index="1" name="mute" parameterValue="1"/>
          </component>
          <component componentID="Audition.StereoPanner" id="trackPan" name="StereoPanner" powered="true">
            <parameter index="0" name="Pan" parameterValue="0"/>
          </component>
          <component componentID="Audition.EQ" id="trackEQ" name="EQ" powered="false">
            <parameter index="0" name="Low Shelf Frequency" parameterValue="0.0009079"/>
            <parameter index="1" name="Low Shelf Gain" parameterValue="0.5"/>
            <parameter index="2" name="High Shelf Frequency" parameterValue="0.8161598"/>
            <parameter index="3" name="High Shelf Gain" parameterValue="0.5"/>
            <parameter index="4" name="EQ Band 1 Center Frequency" parameterValue="0.0013618"/>
            <parameter index="5" name="EQ Band 1 Q" parameterValue="0.0002"/>
            <parameter index="6" name="EQ Band 1 Gain" parameterValue="0.5"/>
            <parameter index="7" name="EQ Band 1 Enable" parameterValue="1"/>
            <parameter index="8" name="EQ Band 2 Center Frequency" parameterValue="0.0081707"/>
            <parameter index="9" name="EQ Band 2 Q" parameterValue="0.0002"/>
            <parameter index="10" name="EQ Band 2 Gain" parameterValue="0.5"/>
            <parameter index="11" name="EQ Band 2 Enable" parameterValue="1"/>
            <parameter index="12" name="EQ Band 3 Center Frequency" parameterValue="0.0354063"/>
            <parameter index="13" name="EQ Band 3 Q" parameterValue="0.0002"/>
            <parameter index="14" name="EQ Band 3 Gain" parameterValue="0.5"/>
            <parameter index="15" name="EQ Band 3 Enable" parameterValue="1"/>
            <parameter index="16" name="EQ Band 4 Center Frequency" parameterValue="0.1443486"/>
            <parameter index="17" name="EQ Band 4 Q" parameterValue="0.0002"/>
            <parameter index="18" name="EQ Band 4 Gain" parameterValue="0.5"/>
            <parameter index="19" name="EQ Band 4 Enable" parameterValue="1"/>
            <parameter index="20" name="EQ Band 5 Center Frequency" parameterValue="0.580118"/>
            <parameter index="21" name="EQ Band 5 Q" parameterValue="0.0002"/>
            <parameter index="22" name="EQ Band 5 Gain" parameterValue="0.5"/>
            <parameter index="23" name="EQ Band 5 Enable" parameterValue="1"/>
            <parameter index="24" name="Master Gain" parameterValue="0.6666667"/>
            <parameter index="25" name="ConstantQ" parameterValue="1"/>
            <parameter index="26" name="Low Shelf Filter Order" parameterValue="0"/>
            <parameter index="27" name="High Shelf Filter Order" parameterValue="0"/>
            <parameter index="28" name="Ultra-Quiet Mode" parameterValue="0"/>
            <parameter index="29" name="Low Shelf Enable" parameterValue="1"/>
            <parameter index="30" name="High Shelf Enable" parameterValue="1"/>
            <parameter index="31" name="Original Sample Rate" parameterValue="0.2296875"/>
            <parameter index="32" name="EQ Band 1 Bandwidth" parameterValue="0.0025"/>
            <parameter index="33" name="EQ Band 2 Bandwidth" parameterValue="0.01"/>
            <parameter index="34" name="EQ Band 3 Bandwidth" parameterValue="0.04"/>
            <parameter index="35" name="EQ Band 4 Bandwidth" parameterValue="0.16"/>
            <parameter index="36" name="EQ Band 5 Bandwidth" parameterValue="0.64"/>
            <parameter index="37" name="High-Pass Filter Enable" parameterValue="0"/>
            <parameter index="38" name="High-Pass Cutoff Frequency" parameterValue="0"/>
            <parameter index="39" name="High-Pass Slope" parameterValue="4"/>
            <parameter index="40" name="Low-Pass Filter Enable" parameterValue="0"/>
            <parameter index="41" name="Low-Pass Cutoff Frequency" parameterValue="0.906945"/>
            <parameter index="42" name="Low-Pass Slope" parameterValue="4"/>
            <parameter index="43" name="Bypass" parameterValue="0"/>
            <parameter index="44" name="LowGraphRange" parameterValue="1"/>
          </component>
        </trackAudioParameters>
        <editParameter parameterIndex="0" slotIndex="4294967280"/>
        <sendList>
          <sendSlot preFader="false" sendOutputID="0" slotIndex="0">
            <component id="sendComponent" powered="false">
              <parameter index="0" name="Power On/Off" parameterValue="0"/>
              <parameter index="1" name="Level" parameterValue="0"/>
            </component>
            <component id="sendPan" powered="true"/>
          </sendSlot>
          <sendSlot preFader="false" sendOutputID="0" slotIndex="1">
            <component id="sendComponent" powered="false">
              <parameter index="0" name="Power On/Off" parameterValue="0"/>
              <parameter index="1" name="Level" parameterValue="0"/>
            </component>
            <component id="sendPan" powered="true"/>
          </sendSlot>
          <sendSlot preFader="false" sendOutputID="0" slotIndex="2">
            <component id="sendComponent" powered="false">
              <parameter index="0" name="Power On/Off" parameterValue="0"/>
              <parameter index="1" name="Level" parameterValue="0"/>
            </component>
            <component id="sendPan" powered="true"/>
          </sendSlot>
          <sendSlot preFader="false" sendOutputID="0" slotIndex="3">
            <component id="sendComponent" powered="false">
              <parameter index="0" name="Power On/Off" parameterValue="0"/>
              <parameter index="1" name="Level" parameterValue="0"/>
            </component>
            <component id="sendPan" powered="true"/>
          </sendSlot>
          <sendSlot preFader="false" sendOutputID="0" slotIndex="4">
            <component id="sendComponent" powered="false">
              <parameter index="0" name="Power On/Off" parameterValue="0"/>
              <parameter index="1" name="Level" parameterValue="0"/>
            </component>
            <component id="sendPan" powered="true"/>
          </sendSlot>
          <sendSlot preFader="false" sendOutputID="0" slotIndex="5">
            <component id="sendComponent" powered="false">
              <parameter index="0" name="Power On/Off" parameterValue="0"/>
              <parameter index="1" name="Level" parameterValue="0"/>
            </component>
            <component id="sendPan" powered="true"/>
          </sendSlot>
          <sendSlot preFader="false" sendOutputID="0" slotIndex="6">
            <component id="sendComponent" powered="false">
              <parameter index="0" name="Power On/Off" parameterValue="0"/>
              <parameter index="1" name="Level" parameterValue="0"/>
            </component>
            <component id="sendPan" powered="true"/>
          </sendSlot>
          <sendSlot preFader="false" sendOutputID="0" slotIndex="7">
            <component id="sendComponent" powered="false">
              <parameter index="0" name="Power On/Off" parameterValue="0"/>
              <parameter index="1" name="Level" parameterValue="0"/>
            </component>
            <component id="sendPan" powered="true"/>
          </sendSlot>
          <sendSlot preFader="false" sendOutputID="0" slotIndex="8">
            <component id="sendComponent" powered="false">
              <parameter index="0" name="Power On/Off" parameterValue="0"/>
              <parameter index="1" name="Level" parameterValue="0"/>
            </component>
            <component id="sendPan" powered="true"/>
          </sendSlot>
          <sendSlot preFader="false" sendOutputID="0" slotIndex="9">
            <component id="sendComponent" powered="false">
              <parameter index="0" name="Power On/Off" parameterValue="0"/>
              <parameter index="1" name="Level" parameterValue="0"/>
            </component>
            <component id="sendPan" powered="true"/>
          </sendSlot>
          <sendSlot preFader="false" sendOutputID="0" slotIndex="10">
            <component id="sendComponent" powered="false">
              <parameter index="0" name="Power On/Off" parameterValue="0"/>
              <parameter index="1" name="Level" parameterValue="0"/>
            </component>
            <component id="sendPan" powered="true"/>
          </sendSlot>
          <sendSlot preFader="false" sendOutputID="0" slotIndex="11">
            <component id="sendComponent" powered="false">
              <parameter index="0" name="Power On/Off" parameterValue="0"/>
              <parameter index="1" name="Level" parameterValue="0"/>
            </component>
            <component id="sendPan" powered="true"/>
          </sendSlot>
          <sendSlot preFader="false" sendOutputID="0" slotIndex="12">
            <component id="sendComponent" powered="false">
              <parameter index="0" name="Power On/Off" parameterValue="0"/>
              <parameter index="1" name="Level" parameterValue="0"/>
            </component>
            <component id="sendPan" powered="true"/>
          </sendSlot>
          <sendSlot preFader="false" sendOutputID="0" slotIndex="13">
            <component id="sendComponent" powered="false">
              <parameter index="0" name="Power On/Off" parameterValue="0"/>
              <parameter index="1" name="Level" parameterValue="0"/>
            </component>
            <component id="sendPan" powered="true"/>
          </sendSlot>
          <sendSlot preFader="false" sendOutputID="0" slotIndex="14">
            <component id="sendComponent" powered="false">
              <parameter index="0" name="Power On/Off" parameterValue="0"/>
              <parameter index="1" name="Level" parameterValue="0"/>
            </component>
            <component id="sendPan" powered="true"/>
          </sendSlot>
          <sendSlot preFader="false" sendOutputID="0" slotIndex="15">
            <component id="sendComponent" powered="false">
              <parameter index="0" name="Power On/Off" parameterValue="0"/>
              <parameter index="1" name="Level" parameterValue="0"/>
            </component>
            <component id="sendPan" powered="true"/>
          </sendSlot>
        </sendList>
        <audioClip clipAutoCrossfade="true" crossFadeHeadClipID="-1" crossFadeTailClipID="-1" endPoint="363520" fileID="2" hue="-1" id="0" lockedInTime="false" looped="false" name="Track 3_008" offline="false" select="false" sourceInPoint="0" sourceOutPoint="363520" startPoint="0" zOrder="3">
          <component componentID="Audition.Fader" id="clipGain" name="volume" powered="true">
            <parameter index="0" name="volume" parameterValue="1"/>
            <parameter index="1" name="static gain" parameterValue="1"/>
          </component>
          <component componentID="Audition.Mute" id="clipMute" name="Mute" powered="true">
            <parameter index="0" parameterValue="0"/>
            <parameter index="1" name="mute" parameterValue="0"/>
          </component>
          <component componentID="Audition.StereoPanner" id="clipPan" name="StereoPanner" powered="true">
            <parameter index="0" name="Pan" parameterValue="0"/>
          </component>
          <fadeIn crossFadeLinkType="linkedAsymmetric" endPoint="0" shape="0" startPoint="0" type="cosine"/>
          <fadeOut crossFadeLinkType="linkedAsymmetric" endPoint="363520" shape="0" startPoint="363520" type="cosine"/>
          <take sourceInPoint="0"/>
          <editParameter parameterIndex="0" slotIndex="4294967281"/>
          <editParameter parameterIndex="0" slotIndex="4294967280"/>
          <channelMap>
            <channel index="0" sourceIndex="0"/>
            <channel index="1" sourceIndex="1"/>
          </channelMap>
        </audioClip>
      </audioTrack>
      <audioTrack automationLaneOpenState="false" id="10004" index="4" select="false" visible="true">
        <trackParameters trackHeight="293" trackHue="-1,00">
          <name>Metall tap</name>
        </trackParameters>
        <trackAudioParameters audioChannelType="stereo" automationMode="1" monitoring="false" recordArmed="false" solo="false" soloSafe="false">
          <trackOutput outputID="10000" type="trackID"/>
          <trackInput inputID="1"/>
          <component componentID="Audition.Fader" id="trackFader" name="volume" powered="true">
            <parameter index="0" name="volume" parameterValue="1"/>
            <parameter index="1" name="static gain" parameterValue="1"/>
          </component>
          <component componentID="Audition.Mute" id="trackMute" name="Mute" powered="true">
            <parameter index="0" parameterValue="1"/>
            <parameter index="1" name="mute" parameterValue="0"/>
          </component>
          <component componentID="Audition.StereoPanner" id="trackPan" name="StereoPanner" powered="true">
            <parameter index="0" name="Pan" parameterValue="0"/>
          </component>
          <component componentID="Audition.EQ" id="trackEQ" name="EQ" powered="false">
            <parameter index="0" name="Low Shelf Frequency" parameterValue="0.0009079"/>
            <parameter index="1" name="Low Shelf Gain" parameterValue="0.5"/>
            <parameter index="2" name="High Shelf Frequency" parameterValue="0.8161598"/>
            <parameter index="3" name="High Shelf Gain" parameterValue="0.5"/>
            <parameter index="4" name="EQ Band 1 Center Frequency" parameterValue="0.0013618"/>
            <parameter index="5" name="EQ Band 1 Q" parameterValue="0.0002"/>
            <parameter index="6" name="EQ Band 1 Gain" parameterValue="0.5"/>
            <parameter index="7" name="EQ Band 1 Enable" parameterValue="1"/>
            <parameter index="8" name="EQ Band 2 Center Frequency" parameterValue="0.0081707"/>
            <parameter index="9" name="EQ Band 2 Q" parameterValue="0.0002"/>
            <parameter index="10" name="EQ Band 2 Gain" parameterValue="0.5"/>
            <parameter index="11" name="EQ Band 2 Enable" parameterValue="1"/>
            <parameter index="12" name="EQ Band 3 Center Frequency" parameterValue="0.0354063"/>
            <parameter index="13" name="EQ Band 3 Q" parameterValue="0.0002"/>
            <parameter index="14" name="EQ Band 3 Gain" parameterValue="0.5"/>
            <parameter index="15" name="EQ Band 3 Enable" parameterValue="1"/>
            <parameter index="16" name="EQ Band 4 Center Frequency" parameterValue="0.1443486"/>
            <parameter index="17" name="EQ Band 4 Q" parameterValue="0.0002"/>
            <parameter index="18" name="EQ Band 4 Gain" parameterValue="0.5"/>
            <parameter index="19" name="EQ Band 4 Enable" parameterValue="1"/>
            <parameter index="20" name="EQ Band 5 Center Frequency" parameterValue="0.580118"/>
            <parameter index="21" name="EQ Band 5 Q" parameterValue="0.0002"/>
            <parameter index="22" name="EQ Band 5 Gain" parameterValue="0.5"/>
            <parameter index="23" name="EQ Band 5 Enable" parameterValue="1"/>
            <parameter index="24" name="Master Gain" parameterValue="0.6666667"/>
            <parameter index="25" name="ConstantQ" parameterValue="1"/>
            <parameter index="26" name="Low Shelf Filter Order" parameterValue="0"/>
            <parameter index="27" name="High Shelf Filter Order" parameterValue="0"/>
            <parameter index="28" name="Ultra-Quiet Mode" parameterValue="0"/>
            <parameter index="29" name="Low Shelf Enable" parameterValue="1"/>
            <parameter index="30" name="High Shelf Enable" parameterValue="1"/>
            <parameter index="31" name="Original Sample Rate" parameterValue="0.2296875"/>
            <parameter index="32" name="EQ Band 1 Bandwidth" parameterValue="0.0025"/>
            <parameter index="33" name="EQ Band 2 Bandwidth" parameterValue="0.01"/>
            <parameter index="34" name="EQ Band 3 Bandwidth" parameterValue="0.04"/>
            <parameter index="35" name="EQ Band 4 Bandwidth" parameterValue="0.16"/>
            <parameter index="36" name="EQ Band 5 Bandwidth" parameterValue="0.64"/>
            <parameter index="37" name="High-Pass Filter Enable" parameterValue="0"/>
            <parameter index="38" name="High-Pass Cutoff Frequency" parameterValue="0"/>
            <parameter index="39" name="High-Pass Slope" parameterValue="4"/>
            <parameter index="40" name="Low-Pass Filter Enable" parameterValue="0"/>
            <parameter index="41" name="Low-Pass Cutoff Frequency" parameterValue="0.906945"/>
            <parameter index="42" name="Low-Pass Slope" parameterValue="4"/>
            <parameter index="43" name="Bypass" parameterValue="0"/>
            <parameter index="44" name="LowGraphRange" parameterValue="1"/>
          </component>
        </trackAudioParameters>
        <editParameter parameterIndex="0" slotIndex="4294967280"/>
        <sendList>
          <sendSlot preFader="false" sendOutputID="0" slotIndex="0">
            <component id="sendComponent" powered="false">
              <parameter index="0" name="Power On/Off" parameterValue="0"/>
              <parameter index="1" name="Level" parameterValue="0"/>
            </component>
            <component id="sendPan" powered="true"/>
          </sendSlot>
          <sendSlot preFader="false" sendOutputID="0" slotIndex="1">
            <component id="sendComponent" powered="false">
              <parameter index="0" name="Power On/Off" parameterValue="0"/>
              <parameter index="1" name="Level" parameterValue="0"/>
            </component>
            <component id="sendPan" powered="true"/>
          </sendSlot>
          <sendSlot preFader="false" sendOutputID="0" slotIndex="2">
            <component id="sendComponent" powered="false">
              <parameter index="0" name="Power On/Off" parameterValue="0"/>
              <parameter index="1" name="Level" parameterValue="0"/>
            </component>
            <component id="sendPan" powered="true"/>
          </sendSlot>
          <sendSlot preFader="false" sendOutputID="0" slotIndex="3">
            <component id="sendComponent" powered="false">
              <parameter index="0" name="Power On/Off" parameterValue="0"/>
              <parameter index="1" name="Level" parameterValue="0"/>
            </component>
            <component id="sendPan" powered="true"/>
          </sendSlot>
          <sendSlot preFader="false" sendOutputID="0" slotIndex="4">
            <component id="sendComponent" powered="false">
              <parameter index="0" name="Power On/Off" parameterValue="0"/>
              <parameter index="1" name="Level" parameterValue="0"/>
            </component>
            <component id="sendPan" powered="true"/>
          </sendSlot>
          <sendSlot preFader="false" sendOutputID="0" slotIndex="5">
            <component id="sendComponent" powered="false">
              <parameter index="0" name="Power On/Off" parameterValue="0"/>
              <parameter index="1" name="Level" parameterValue="0"/>
            </component>
            <component id="sendPan" powered="true"/>
          </sendSlot>
          <sendSlot preFader="false" sendOutputID="0" slotIndex="6">
            <component id="sendComponent" powered="false">
              <parameter index="0" name="Power On/Off" parameterValue="0"/>
              <parameter index="1" name="Level" parameterValue="0"/>
            </component>
            <component id="sendPan" powered="true"/>
          </sendSlot>
          <sendSlot preFader="false" sendOutputID="0" slotIndex="7">
            <component id="sendComponent" powered="false">
              <parameter index="0" name="Power On/Off" parameterValue="0"/>
              <parameter index="1" name="Level" parameterValue="0"/>
            </component>
            <component id="sendPan" powered="true"/>
          </sendSlot>
          <sendSlot preFader="false" sendOutputID="0" slotIndex="8">
            <component id="sendComponent" powered="false">
              <parameter index="0" name="Power On/Off" parameterValue="0"/>
              <parameter index="1" name="Level" parameterValue="0"/>
            </component>
            <component id="sendPan" powered="true"/>
          </sendSlot>
          <sendSlot preFader="false" sendOutputID="0" slotIndex="9">
            <component id="sendComponent" powered="false">
              <parameter index="0" name="Power On/Off" parameterValue="0"/>
              <parameter index="1" name="Level" parameterValue="0"/>
            </component>
            <component id="sendPan" powered="true"/>
          </sendSlot>
          <sendSlot preFader="false" sendOutputID="0" slotIndex="10">
            <component id="sendComponent" powered="false">
              <parameter index="0" name="Power On/Off" parameterValue="0"/>
              <parameter index="1" name="Level" parameterValue="0"/>
            </component>
            <component id="sendPan" powered="true"/>
          </sendSlot>
          <sendSlot preFader="false" sendOutputID="0" slotIndex="11">
            <component id="sendComponent" powered="false">
              <parameter index="0" name="Power On/Off" parameterValue="0"/>
              <parameter index="1" name="Level" parameterValue="0"/>
            </component>
            <component id="sendPan" powered="true"/>
          </sendSlot>
          <sendSlot preFader="false" sendOutputID="0" slotIndex="12">
            <component id="sendComponent" powered="false">
              <parameter index="0" name="Power On/Off" parameterValue="0"/>
              <parameter index="1" name="Level" parameterValue="0"/>
            </component>
            <component id="sendPan" powered="true"/>
          </sendSlot>
          <sendSlot preFader="false" sendOutputID="0" slotIndex="13">
            <component id="sendComponent" powered="false">
              <parameter index="0" name="Power On/Off" parameterValue="0"/>
              <parameter index="1" name="Level" parameterValue="0"/>
            </component>
            <component id="sendPan" powered="true"/>
          </sendSlot>
          <sendSlot preFader="false" sendOutputID="0" slotIndex="14">
            <component id="sendComponent" powered="false">
              <parameter index="0" name="Power On/Off" parameterValue="0"/>
              <parameter index="1" name="Level" parameterValue="0"/>
            </component>
            <component id="sendPan" powered="true"/>
          </sendSlot>
          <sendSlot preFader="false" sendOutputID="0" slotIndex="15">
            <component id="sendComponent" powered="false">
              <parameter index="0" name="Power On/Off" parameterValue="0"/>
              <parameter index="1" name="Level" parameterValue="0"/>
            </component>
            <component id="sendPan" powered="true"/>
          </sendSlot>
        </sendList>
        <audioClip clipAutoCrossfade="true" crossFadeHeadClipID="-1" crossFadeTailClipID="-1" endPoint="4905984" fileID="3" hue="-1" id="0" lockedInTime="false" looped="false" name="Metall tap_009" offline="false" select="false" sourceInPoint="0" sourceOutPoint="4905984" startPoint="0" zOrder="2">
          <component componentID="Audition.Fader" id="clipGain" name="volume" powered="true">
            <parameter index="0" name="volume" parameterValue="1"/>
            <parameter index="1" name="static gain" parameterValue="1"/>
          </component>
          <component componentID="Audition.Mute" id="clipMute" name="Mute" powered="true">
            <parameter index="0" parameterValue="0"/>
            <parameter index="1" name="mute" parameterValue="0"/>
          </component>
          <component componentID="Audition.StereoPanner" id="clipPan" name="StereoPanner" powered="true">
            <parameter index="0" name="Pan" parameterValue="0"/>
          </component>
          <fadeIn crossFadeLinkType="linkedAsymmetric" endPoint="0" shape="0" startPoint="0" type="cosine"/>
          <fadeOut crossFadeLinkType="linkedAsymmetric" endPoint="4905984" shape="0" startPoint="4905984" type="cosine"/>
          <take sourceInPoint="0"/>
          <editParameter parameterIndex="0" slotIndex="4294967281"/>
          <editParameter parameterIndex="0" slotIndex="4294967280"/>
          <channelMap>
            <channel index="0" sourceIndex="0"/>
            <channel index="1" sourceIndex="1"/>
          </channelMap>
        </audioClip>
      </audioTrack>
      <audioTrack automationLaneOpenState="false" id="10005" index="5" select="false" visible="true">
        <trackParameters trackHeight="293" trackHue="-1,00">
          <name>Metall dra</name>
        </trackParameters>
        <trackAudioParameters audioChannelType="stereo" automationMode="1" monitoring="false" recordArmed="false" solo="false" soloSafe="false">
          <trackOutput outputID="10000" type="trackID"/>
          <trackInput inputID="1"/>
          <component componentID="Audition.Fader" id="trackFader" name="volume" powered="true">
            <parameter index="0" name="volume" parameterValue="1"/>
            <parameter index="1" name="static gain" parameterValue="1"/>
          </component>
          <component componentID="Audition.Mute" id="trackMute" name="Mute" powered="true">
            <parameter index="0" parameterValue="1"/>
            <parameter index="1" name="mute" parameterValue="0"/>
          </component>
          <component componentID="Audition.StereoPanner" id="trackPan" name="StereoPanner" powered="true">
            <parameter index="0" name="Pan" parameterValue="0"/>
          </component>
          <component componentID="Audition.EQ" id="trackEQ" name="EQ" powered="false">
            <parameter index="0" name="Low Shelf Frequency" parameterValue="0.0009079"/>
            <parameter index="1" name="Low Shelf Gain" parameterValue="0.5"/>
            <parameter index="2" name="High Shelf Frequency" parameterValue="0.8161598"/>
            <parameter index="3" name="High Shelf Gain" parameterValue="0.5"/>
            <parameter index="4" name="EQ Band 1 Center Frequency" parameterValue="0.0013618"/>
            <parameter index="5" name="EQ Band 1 Q" parameterValue="0.0002"/>
            <parameter index="6" name="EQ Band 1 Gain" parameterValue="0.5"/>
            <parameter index="7" name="EQ Band 1 Enable" parameterValue="1"/>
            <parameter index="8" name="EQ Band 2 Center Frequency" parameterValue="0.0081707"/>
            <parameter index="9" name="EQ Band 2 Q" parameterValue="0.0002"/>
            <parameter index="10" name="EQ Band 2 Gain" parameterValue="0.5"/>
            <parameter index="11" name="EQ Band 2 Enable" parameterValue="1"/>
            <parameter index="12" name="EQ Band 3 Center Frequency" parameterValue="0.0354063"/>
            <parameter index="13" name="EQ Band 3 Q" parameterValue="0.0002"/>
            <parameter index="14" name="EQ Band 3 Gain" parameterValue="0.5"/>
            <parameter index="15" name="EQ Band 3 Enable" parameterValue="1"/>
            <parameter index="16" name="EQ Band 4 Center Frequency" parameterValue="0.1443486"/>
            <parameter index="17" name="EQ Band 4 Q" parameterValue="0.0002"/>
            <parameter index="18" name="EQ Band 4 Gain" parameterValue="0.5"/>
            <parameter index="19" name="EQ Band 4 Enable" parameterValue="1"/>
            <parameter index="20" name="EQ Band 5 Center Frequency" parameterValue="0.580118"/>
            <parameter index="21" name="EQ Band 5 Q" parameterValue="0.0002"/>
            <parameter index="22" name="EQ Band 5 Gain" parameterValue="0.5"/>
            <parameter index="23" name="EQ Band 5 Enable" parameterValue="1"/>
            <parameter index="24" name="Master Gain" parameterValue="0.6666667"/>
            <parameter index="25" name="ConstantQ" parameterValue="1"/>
            <parameter index="26" name="Low Shelf Filter Order" parameterValue="0"/>
            <parameter index="27" name="High Shelf Filter Order" parameterValue="0"/>
            <parameter index="28" name="Ultra-Quiet Mode" parameterValue="0"/>
            <parameter index="29" name="Low Shelf Enable" parameterValue="1"/>
            <parameter index="30" name="High Shelf Enable" parameterValue="1"/>
            <parameter index="31" name="Original Sample Rate" parameterValue="0.2296875"/>
            <parameter index="32" name="EQ Band 1 Bandwidth" parameterValue="0.0025"/>
            <parameter index="33" name="EQ Band 2 Bandwidth" parameterValue="0.01"/>
            <parameter index="34" name="EQ Band 3 Bandwidth" parameterValue="0.04"/>
            <parameter index="35" name="EQ Band 4 Bandwidth" parameterValue="0.16"/>
            <parameter index="36" name="EQ Band 5 Bandwidth" parameterValue="0.64"/>
            <parameter index="37" name="High-Pass Filter Enable" parameterValue="0"/>
            <parameter index="38" name="High-Pass Cutoff Frequency" parameterValue="0"/>
            <parameter index="39" name="High-Pass Slope" parameterValue="4"/>
            <parameter index="40" name="Low-Pass Filter Enable" parameterValue="0"/>
            <parameter index="41" name="Low-Pass Cutoff Frequency" parameterValue="0.906945"/>
            <parameter index="42" name="Low-Pass Slope" parameterValue="4"/>
            <parameter index="43" name="Bypass" parameterValue="0"/>
            <parameter index="44" name="LowGraphRange" parameterValue="1"/>
          </component>
        </trackAudioParameters>
        <editParameter parameterIndex="0" slotIndex="4294967280"/>
        <sendList>
          <sendSlot preFader="false" sendOutputID="0" slotIndex="0">
            <component id="sendComponent" powered="false">
              <parameter index="0" name="Power On/Off" parameterValue="0"/>
              <parameter index="1" name="Level" parameterValue="0"/>
            </component>
            <component id="sendPan" powered="true"/>
          </sendSlot>
          <sendSlot preFader="false" sendOutputID="0" slotIndex="1">
            <component id="sendComponent" powered="false">
              <parameter index="0" name="Power On/Off" parameterValue="0"/>
              <parameter index="1" name="Level" parameterValue="0"/>
            </component>
            <component id="sendPan" powered="true"/>
          </sendSlot>
          <sendSlot preFader="false" sendOutputID="0" slotIndex="2">
            <component id="sendComponent" powered="false">
              <parameter index="0" name="Power On/Off" parameterValue="0"/>
              <parameter index="1" name="Level" parameterValue="0"/>
            </component>
            <component id="sendPan" powered="true"/>
          </sendSlot>
          <sendSlot preFader="false" sendOutputID="0" slotIndex="3">
            <component id="sendComponent" powered="false">
              <parameter index="0" name="Power On/Off" parameterValue="0"/>
              <parameter index="1" name="Level" parameterValue="0"/>
            </component>
            <component id="sendPan" powered="true"/>
          </sendSlot>
          <sendSlot preFader="false" sendOutputID="0" slotIndex="4">
            <component id="sendComponent" powered="false">
              <parameter index="0" name="Power On/Off" parameterValue="0"/>
              <parameter index="1" name="Level" parameterValue="0"/>
            </component>
            <component id="sendPan" powered="true"/>
          </sendSlot>
          <sendSlot preFader="false" sendOutputID="0" slotIndex="5">
            <component id="sendComponent" powered="false">
              <parameter index="0" name="Power On/Off" parameterValue="0"/>
              <parameter index="1" name="Level" parameterValue="0"/>
            </component>
            <component id="sendPan" powered="true"/>
          </sendSlot>
          <sendSlot preFader="false" sendOutputID="0" slotIndex="6">
            <component id="sendComponent" powered="false">
              <parameter index="0" name="Power On/Off" parameterValue="0"/>
              <parameter index="1" name="Level" parameterValue="0"/>
            </component>
            <component id="sendPan" powered="true"/>
          </sendSlot>
          <sendSlot preFader="false" sendOutputID="0" slotIndex="7">
            <component id="sendComponent" powered="false">
              <parameter index="0" name="Power On/Off" parameterValue="0"/>
              <parameter index="1" name="Level" parameterValue="0"/>
            </component>
            <component id="sendPan" powered="true"/>
          </sendSlot>
          <sendSlot preFader="false" sendOutputID="0" slotIndex="8">
            <component id="sendComponent" powered="false">
              <parameter index="0" name="Power On/Off" parameterValue="0"/>
              <parameter index="1" name="Level" parameterValue="0"/>
            </component>
            <component id="sendPan" powered="true"/>
          </sendSlot>
          <sendSlot preFader="false" sendOutputID="0" slotIndex="9">
            <component id="sendComponent" powered="false">
              <parameter index="0" name="Power On/Off" parameterValue="0"/>
              <parameter index="1" name="Level" parameterValue="0"/>
            </component>
            <component id="sendPan" powered="true"/>
          </sendSlot>
          <sendSlot preFader="false" sendOutputID="0" slotIndex="10">
            <component id="sendComponent" powered="false">
              <parameter index="0" name="Power On/Off" parameterValue="0"/>
              <parameter index="1" name="Level" parameterValue="0"/>
            </component>
            <component id="sendPan" powered="true"/>
          </sendSlot>
          <sendSlot preFader="false" sendOutputID="0" slotIndex="11">
            <component id="sendComponent" powered="false">
              <parameter index="0" name="Power On/Off" parameterValue="0"/>
              <parameter index="1" name="Level" parameterValue="0"/>
            </component>
            <component id="sendPan" powered="true"/>
          </sendSlot>
          <sendSlot preFader="false" sendOutputID="0" slotIndex="12">
            <component id="sendComponent" powered="false">
              <parameter index="0" name="Power On/Off" parameterValue="0"/>
              <parameter index="1" name="Level" parameterValue="0"/>
            </component>
            <component id="sendPan" powered="true"/>
          </sendSlot>
          <sendSlot preFader="false" sendOutputID="0" slotIndex="13">
            <component id="sendComponent" powered="false">
              <parameter index="0" name="Power On/Off" parameterValue="0"/>
              <parameter index="1" name="Level" parameterValue="0"/>
            </component>
            <component id="sendPan" powered="true"/>
          </sendSlot>
          <sendSlot preFader="false" sendOutputID="0" slotIndex="14">
            <component id="sendComponent" powered="false">
              <parameter index="0" name="Power On/Off" parameterValue="0"/>
              <parameter index="1" name="Level" parameterValue="0"/>
            </component>
            <component id="sendPan" powered="true"/>
          </sendSlot>
          <sendSlot preFader="false" sendOutputID="0" slotIndex="15">
            <component id="sendComponent" powered="false">
              <parameter index="0" name="Power On/Off" parameterValue="0"/>
              <parameter index="1" name="Level" parameterValue="0"/>
            </component>
            <component id="sendPan" powered="true"/>
          </sendSlot>
        </sendList>
        <audioClip clipAutoCrossfade="true" crossFadeHeadClipID="-1" crossFadeTailClipID="-1" endPoint="3176448" fileID="4" hue="-1" id="0" lockedInTime="false" looped="false" name="Metall dra_010" offline="false" select="false" sourceInPoint="0" sourceOutPoint="3176448" startPoint="0" zOrder="3">
          <component componentID="Audition.Fader" id="clipGain" name="volume" powered="true">
            <parameter index="0" name="volume" parameterValue="1"/>
            <parameter index="1" name="static gain" parameterValue="1"/>
          </component>
          <component componentID="Audition.Mute" id="clipMute" name="Mute" powered="true">
            <parameter index="0" parameterValue="0"/>
            <parameter index="1" name="mute" parameterValue="0"/>
          </component>
          <component componentID="Audition.StereoPanner" id="clipPan" name="StereoPanner" powered="true">
            <parameter index="0" name="Pan" parameterValue="0"/>
          </component>
          <fadeIn crossFadeLinkType="linkedAsymmetric" endPoint="0" shape="0" startPoint="0" type="cosine"/>
          <fadeOut crossFadeLinkType="linkedAsymmetric" endPoint="3176448" shape="0" startPoint="3176448" type="cosine"/>
          <take sourceInPoint="0"/>
          <editParameter parameterIndex="0" slotIndex="4294967281"/>
          <editParameter parameterIndex="0" slotIndex="4294967280"/>
          <channelMap>
            <channel index="0" sourceIndex="0"/>
            <channel index="1" sourceIndex="1"/>
          </channelMap>
        </audioClip>
      </audioTrack>
      <audioTrack automationLaneOpenState="false" id="10006" index="6" select="false" visible="true">
        <trackParameters trackHeight="293" trackHue="-1,00">
          <name>Knapptryckningar</name>
        </trackParameters>
        <trackAudioParameters audioChannelType="stereo" automationMode="1" monitoring="false" recordArmed="false" solo="false" soloSafe="false">
          <trackOutput outputID="10000" type="trackID"/>
          <trackInput inputID="1"/>
          <component componentID="Audition.Fader" id="trackFader" name="volume" powered="true">
            <parameter index="0" name="volume" parameterValue="1"/>
            <parameter index="1" name="static gain" parameterValue="1"/>
          </component>
          <component componentID="Audition.Mute" id="trackMute" name="Mute" powered="true">
            <parameter index="0" parameterValue="1"/>
            <parameter index="1" name="mute" parameterValue="0"/>
          </component>
          <component componentID="Audition.StereoPanner" id="trackPan" name="StereoPanner" powered="true">
            <parameter index="0" name="Pan" parameterValue="0"/>
          </component>
          <component componentID="Audition.EQ" id="trackEQ" name="EQ" powered="false">
            <parameter index="0" name="Low Shelf Frequency" parameterValue="0.0009079"/>
            <parameter index="1" name="Low Shelf Gain" parameterValue="0.5"/>
            <parameter index="2" name="High Shelf Frequency" parameterValue="0.8161598"/>
            <parameter index="3" name="High Shelf Gain" parameterValue="0.5"/>
            <parameter index="4" name="EQ Band 1 Center Frequency" parameterValue="0.0013618"/>
            <parameter index="5" name="EQ Band 1 Q" parameterValue="0.0002"/>
            <parameter index="6" name="EQ Band 1 Gain" parameterValue="0.5"/>
            <parameter index="7" name="EQ Band 1 Enable" parameterValue="1"/>
            <parameter index="8" name="EQ Band 2 Center Frequency" parameterValue="0.0081707"/>
            <parameter index="9" name="EQ Band 2 Q" parameterValue="0.0002"/>
            <parameter index="10" name="EQ Band 2 Gain" parameterValue="0.5"/>
            <parameter index="11" name="EQ Band 2 Enable" parameterValue="1"/>
            <parameter index="12" name="EQ Band 3 Center Frequency" parameterValue="0.0354063"/>
            <parameter index="13" name="EQ Band 3 Q" parameterValue="0.0002"/>
            <parameter index="14" name="EQ Band 3 Gain" parameterValue="0.5"/>
            <parameter index="15" name="EQ Band 3 Enable" parameterValue="1"/>
            <parameter index="16" name="EQ Band 4 Center Frequency" parameterValue="0.1443486"/>
            <parameter index="17" name="EQ Band 4 Q" parameterValue="0.0002"/>
            <parameter index="18" name="EQ Band 4 Gain" parameterValue="0.5"/>
            <parameter index="19" name="EQ Band 4 Enable" parameterValue="1"/>
            <parameter index="20" name="EQ Band 5 Center Frequency" parameterValue="0.580118"/>
            <parameter index="21" name="EQ Band 5 Q" parameterValue="0.0002"/>
            <parameter index="22" name="EQ Band 5 Gain" parameterValue="0.5"/>
            <parameter index="23" name="EQ Band 5 Enable" parameterValue="1"/>
            <parameter index="24" name="Master Gain" parameterValue="0.6666667"/>
            <parameter index="25" name="ConstantQ" parameterValue="1"/>
            <parameter index="26" name="Low Shelf Filter Order" parameterValue="0"/>
            <parameter index="27" name="High Shelf Filter Order" parameterValue="0"/>
            <parameter index="28" name="Ultra-Quiet Mode" parameterValue="0"/>
            <parameter index="29" name="Low Shelf Enable" parameterValue="1"/>
            <parameter index="30" name="High Shelf Enable" parameterValue="1"/>
            <parameter index="31" name="Original Sample Rate" parameterValue="0.2296875"/>
            <parameter index="32" name="EQ Band 1 Bandwidth" parameterValue="0.0025"/>
            <parameter index="33" name="EQ Band 2 Bandwidth" parameterValue="0.01"/>
            <parameter index="34" name="EQ Band 3 Bandwidth" parameterValue="0.04"/>
            <parameter index="35" name="EQ Band 4 Bandwidth" parameterValue="0.16"/>
            <parameter index="36" name="EQ Band 5 Bandwidth" parameterValue="0.64"/>
            <parameter index="37" name="High-Pass Filter Enable" parameterValue="0"/>
            <parameter index="38" name="High-Pass Cutoff Frequency" parameterValue="0"/>
            <parameter index="39" name="High-Pass Slope" parameterValue="4"/>
            <parameter index="40" name="Low-Pass Filter Enable" parameterValue="0"/>
            <parameter index="41" name="Low-Pass Cutoff Frequency" parameterValue="0.906945"/>
            <parameter index="42" name="Low-Pass Slope" parameterValue="4"/>
            <parameter index="43" name="Bypass" parameterValue="0"/>
            <parameter index="44" name="LowGraphRange" parameterValue="1"/>
          </component>
        </trackAudioParameters>
        <editParameter parameterIndex="0" slotIndex="4294967280"/>
        <sendList>
          <sendSlot preFader="false" sendOutputID="0" slotIndex="0">
            <component id="sendComponent" powered="false">
              <parameter index="0" name="Power On/Off" parameterValue="0"/>
              <parameter index="1" name="Level" parameterValue="0"/>
            </component>
            <component id="sendPan" powered="true"/>
          </sendSlot>
          <sendSlot preFader="false" sendOutputID="0" slotIndex="1">
            <component id="sendComponent" powered="false">
              <parameter index="0" name="Power On/Off" parameterValue="0"/>
              <parameter index="1" name="Level" parameterValue="0"/>
            </component>
            <component id="sendPan" powered="true"/>
          </sendSlot>
          <sendSlot preFader="false" sendOutputID="0" slotIndex="2">
            <component id="sendComponent" powered="false">
              <parameter index="0" name="Power On/Off" parameterValue="0"/>
              <parameter index="1" name="Level" parameterValue="0"/>
            </component>
            <component id="sendPan" powered="true"/>
          </sendSlot>
          <sendSlot preFader="false" sendOutputID="0" slotIndex="3">
            <component id="sendComponent" powered="false">
              <parameter index="0" name="Power On/Off" parameterValue="0"/>
              <parameter index="1" name="Level" parameterValue="0"/>
            </component>
            <component id="sendPan" powered="true"/>
          </sendSlot>
          <sendSlot preFader="false" sendOutputID="0" slotIndex="4">
            <component id="sendComponent" powered="false">
              <parameter index="0" name="Power On/Off" parameterValue="0"/>
              <parameter index="1" name="Level" parameterValue="0"/>
            </component>
            <component id="sendPan" powered="true"/>
          </sendSlot>
          <sendSlot preFader="false" sendOutputID="0" slotIndex="5">
            <component id="sendComponent" powered="false">
              <parameter index="0" name="Power On/Off" parameterValue="0"/>
              <parameter index="1" name="Level" parameterValue="0"/>
            </component>
            <component id="sendPan" powered="true"/>
          </sendSlot>
          <sendSlot preFader="false" sendOutputID="0" slotIndex="6">
            <component id="sendComponent" powered="false">
              <parameter index="0" name="Power On/Off" parameterValue="0"/>
              <parameter index="1" name="Level" parameterValue="0"/>
            </component>
            <component id="sendPan" powered="true"/>
          </sendSlot>
          <sendSlot preFader="false" sendOutputID="0" slotIndex="7">
            <component id="sendComponent" powered="false">
              <parameter index="0" name="Power On/Off" parameterValue="0"/>
              <parameter index="1" name="Level" parameterValue="0"/>
            </component>
            <component id="sendPan" powered="true"/>
          </sendSlot>
          <sendSlot preFader="false" sendOutputID="0" slotIndex="8">
            <component id="sendComponent" powered="false">
              <parameter index="0" name="Power On/Off" parameterValue="0"/>
              <parameter index="1" name="Level" parameterValue="0"/>
            </component>
            <component id="sendPan" powered="true"/>
          </sendSlot>
          <sendSlot preFader="false" sendOutputID="0" slotIndex="9">
            <component id="sendComponent" powered="false">
              <parameter index="0" name="Power On/Off" parameterValue="0"/>
              <parameter index="1" name="Level" parameterValue="0"/>
            </component>
            <component id="sendPan" powered="true"/>
          </sendSlot>
          <sendSlot preFader="false" sendOutputID="0" slotIndex="10">
            <component id="sendComponent" powered="false">
              <parameter index="0" name="Power On/Off" parameterValue="0"/>
              <parameter index="1" name="Level" parameterValue="0"/>
            </component>
            <component id="sendPan" powered="true"/>
          </sendSlot>
          <sendSlot preFader="false" sendOutputID="0" slotIndex="11">
            <component id="sendComponent" powered="false">
              <parameter index="0" name="Power On/Off" parameterValue="0"/>
              <parameter index="1" name="Level" parameterValue="0"/>
            </component>
            <component id="sendPan" powered="true"/>
          </sendSlot>
          <sendSlot preFader="false" sendOutputID="0" slotIndex="12">
            <component id="sendComponent" powered="false">
              <parameter index="0" name="Power On/Off" parameterValue="0"/>
              <parameter index="1" name="Level" parameterValue="0"/>
            </component>
            <component id="sendPan" powered="true"/>
          </sendSlot>
          <sendSlot preFader="false" sendOutputID="0" slotIndex="13">
            <component id="sendComponent" powered="false">
              <parameter index="0" name="Power On/Off" parameterValue="0"/>
              <parameter index="1" name="Level" parameterValue="0"/>
            </component>
            <component id="sendPan" powered="true"/>
          </sendSlot>
          <sendSlot preFader="false" sendOutputID="0" slotIndex="14">
            <component id="sendComponent" powered="false">
              <parameter index="0" name="Power On/Off" parameterValue="0"/>
              <parameter index="1" name="Level" parameterValue="0"/>
            </component>
            <component id="sendPan" powered="true"/>
          </sendSlot>
          <sendSlot preFader="false" sendOutputID="0" slotIndex="15">
            <component id="sendComponent" powered="false">
              <parameter index="0" name="Power On/Off" parameterValue="0"/>
              <parameter index="1" name="Level" parameterValue="0"/>
            </component>
            <component id="sendPan" powered="true"/>
          </sendSlot>
        </sendList>
        <audioClip clipAutoCrossfade="true" crossFadeHeadClipID="-1" crossFadeTailClipID="-1" endPoint="269312" fileID="5" hue="-1" id="0" lockedInTime="false" looped="false" name="Knapptryckningar_011" offline="false" select="false" sourceInPoint="0" sourceOutPoint="269312" startPoint="0" zOrder="0">
          <component componentID="Audition.Fader" id="clipGain" name="volume" powered="true">
            <parameter index="0" name="volume" parameterValue="1"/>
            <parameter index="1" name="static gain" parameterValue="1"/>
          </component>
          <component componentID="Audition.Mute" id="clipMute" name="Mute" powered="true">
            <parameter index="0" parameterValue="0"/>
            <parameter index="1" name="mute" parameterValue="0"/>
          </component>
          <component componentID="Audition.StereoPanner" id="clipPan" name="StereoPanner" powered="true">
            <parameter index="0" name="Pan" parameterValue="0"/>
          </component>
          <fadeIn crossFadeLinkType="linkedAsymmetric" endPoint="0" shape="0" startPoint="0" type="cosine"/>
          <fadeOut crossFadeLinkType="linkedAsymmetric" endPoint="269312" shape="0" startPoint="269312" type="cosine"/>
          <take sourceInPoint="0"/>
          <editParameter parameterIndex="0" slotIndex="4294967281"/>
          <editParameter parameterIndex="0" slotIndex="4294967280"/>
          <channelMap>
            <channel index="0" sourceIndex="0"/>
            <channel index="1" sourceIndex="1"/>
          </channelMap>
        </audioClip>
        <audioClip clipAutoCrossfade="true" crossFadeHeadClipID="-1" crossFadeTailClipID="-1" endPoint="1029120" fileID="6" hue="-1" id="1" lockedInTime="false" looped="false" name="Knapptryckningar_012" offline="false" select="false" sourceInPoint="0" sourceOutPoint="759808" startPoint="269312" zOrder="5">
          <component componentID="Audition.Fader" id="clipGain" name="volume" powered="true">
            <parameter index="0" name="volume" parameterValue="1"/>
            <parameter index="1" name="static gain" parameterValue="1"/>
          </component>
          <component componentID="Audition.Mute" id="clipMute" name="Mute" powered="true">
            <parameter index="0" parameterValue="0"/>
            <parameter index="1" name="mute" parameterValue="0"/>
          </component>
          <component componentID="Audition.StereoPanner" id="clipPan" name="StereoPanner" powered="true">
            <parameter index="0" name="Pan" parameterValue="0"/>
          </component>
          <fadeIn crossFadeLinkType="linkedAsymmetric" endPoint="0" shape="0" startPoint="0" type="cosine"/>
          <fadeOut crossFadeLinkType="linkedAsymmetric" endPoint="759808" shape="0" startPoint="759808" type="cosine"/>
          <take sourceInPoint="0"/>
          <editParameter parameterIndex="0" slotIndex="4294967281"/>
          <editParameter parameterIndex="0" slotIndex="4294967280"/>
          <channelMap>
            <channel index="0" sourceIndex="0"/>
            <channel index="1" sourceIndex="1"/>
          </channelMap>
        </audioClip>
      </audioTrack>
      <audioTrack automationLaneOpenState="false" id="10007" index="7" select="false" visible="true">
        <trackParameters trackHeight="354" trackHue="-1,00">
          <name>Papper tap</name>
        </trackParameters>
        <trackAudioParameters audioChannelType="stereo" automationMode="1" monitoring="false" recordArmed="false" solo="false" soloSafe="false">
          <trackOutput outputID="10000" type="trackID"/>
          <trackInput inputID="1"/>
          <component componentID="Audition.Fader" id="trackFader" name="volume" powered="true">
            <parameter index="0" name="volume" parameterValue="1"/>
            <parameter index="1" name="static gain" parameterValue="1"/>
          </component>
          <component componentID="Audition.Mute" id="trackMute" name="Mute" powered="true">
            <parameter index="0" parameterValue="1"/>
            <parameter index="1" name="mute" parameterValue="0"/>
          </component>
          <component componentID="Audition.StereoPanner" id="trackPan" name="StereoPanner" powered="true">
            <parameter index="0" name="Pan" parameterValue="0"/>
          </component>
          <component componentID="Audition.EQ" id="trackEQ" name="EQ" powered="false">
            <parameter index="0" name="Low Shelf Frequency" parameterValue="0.0009079"/>
            <parameter index="1" name="Low Shelf Gain" parameterValue="0.5"/>
            <parameter index="2" name="High Shelf Frequency" parameterValue="0.8161598"/>
            <parameter index="3" name="High Shelf Gain" parameterValue="0.5"/>
            <parameter index="4" name="EQ Band 1 Center Frequency" parameterValue="0.0013618"/>
            <parameter index="5" name="EQ Band 1 Q" parameterValue="0.0002"/>
            <parameter index="6" name="EQ Band 1 Gain" parameterValue="0.5"/>
            <parameter index="7" name="EQ Band 1 Enable" parameterValue="1"/>
            <parameter index="8" name="EQ Band 2 Center Frequency" parameterValue="0.0081707"/>
            <parameter index="9" name="EQ Band 2 Q" parameterValue="0.0002"/>
            <parameter index="10" name="EQ Band 2 Gain" parameterValue="0.5"/>
            <parameter index="11" name="EQ Band 2 Enable" parameterValue="1"/>
            <parameter index="12" name="EQ Band 3 Center Frequency" parameterValue="0.0354063"/>
            <parameter index="13" name="EQ Band 3 Q" parameterValue="0.0002"/>
            <parameter index="14" name="EQ Band 3 Gain" parameterValue="0.5"/>
            <parameter index="15" name="EQ Band 3 Enable" parameterValue="1"/>
            <parameter index="16" name="EQ Band 4 Center Frequency" parameterValue="0.1443486"/>
            <parameter index="17" name="EQ Band 4 Q" parameterValue="0.0002"/>
            <parameter index="18" name="EQ Band 4 Gain" parameterValue="0.5"/>
            <parameter index="19" name="EQ Band 4 Enable" parameterValue="1"/>
            <parameter index="20" name="EQ Band 5 Center Frequency" parameterValue="0.580118"/>
            <parameter index="21" name="EQ Band 5 Q" parameterValue="0.0002"/>
            <parameter index="22" name="EQ Band 5 Gain" parameterValue="0.5"/>
            <parameter index="23" name="EQ Band 5 Enable" parameterValue="1"/>
            <parameter index="24" name="Master Gain" parameterValue="0.6666667"/>
            <parameter index="25" name="ConstantQ" parameterValue="1"/>
            <parameter index="26" name="Low Shelf Filter Order" parameterValue="0"/>
            <parameter index="27" name="High Shelf Filter Order" parameterValue="0"/>
            <parameter index="28" name="Ultra-Quiet Mode" parameterValue="0"/>
            <parameter index="29" name="Low Shelf Enable" parameterValue="1"/>
            <parameter index="30" name="High Shelf Enable" parameterValue="1"/>
            <parameter index="31" name="Original Sample Rate" parameterValue="0.2296875"/>
            <parameter index="32" name="EQ Band 1 Bandwidth" parameterValue="0.0025"/>
            <parameter index="33" name="EQ Band 2 Bandwidth" parameterValue="0.01"/>
            <parameter index="34" name="EQ Band 3 Bandwidth" parameterValue="0.04"/>
            <parameter index="35" name="EQ Band 4 Bandwidth" parameterValue="0.16"/>
            <parameter index="36" name="EQ Band 5 Bandwidth" parameterValue="0.64"/>
            <parameter index="37" name="High-Pass Filter Enable" parameterValue="0"/>
            <parameter index="38" name="High-Pass Cutoff Frequency" parameterValue="0"/>
            <parameter index="39" name="High-Pass Slope" parameterValue="4"/>
            <parameter index="40" name="Low-Pass Filter Enable" parameterValue="0"/>
            <parameter index="41" name="Low-Pass Cutoff Frequency" parameterValue="0.906945"/>
            <parameter index="42" name="Low-Pass Slope" parameterValue="4"/>
            <parameter index="43" name="Bypass" parameterValue="0"/>
            <parameter index="44" name="LowGraphRange" parameterValue="1"/>
          </component>
        </trackAudioParameters>
        <editParameter parameterIndex="0" slotIndex="4294967280"/>
        <sendList>
          <sendSlot preFader="false" sendOutputID="0" slotIndex="0">
            <component id="sendComponent" powered="false">
              <parameter index="0" name="Power On/Off" parameterValue="0"/>
              <parameter index="1" name="Level" parameterValue="0"/>
            </component>
            <component id="sendPan" powered="true"/>
          </sendSlot>
          <sendSlot preFader="false" sendOutputID="0" slotIndex="1">
            <component id="sendComponent" powered="false">
              <parameter index="0" name="Power On/Off" parameterValue="0"/>
              <parameter index="1" name="Level" parameterValue="0"/>
            </component>
            <component id="sendPan" powered="true"/>
          </sendSlot>
          <sendSlot preFader="false" sendOutputID="0" slotIndex="2">
            <component id="sendComponent" powered="false">
              <parameter index="0" name="Power On/Off" parameterValue="0"/>
              <parameter index="1" name="Level" parameterValue="0"/>
            </component>
            <component id="sendPan" powered="true"/>
          </sendSlot>
          <sendSlot preFader="false" sendOutputID="0" slotIndex="3">
            <component id="sendComponent" powered="false">
              <parameter index="0" name="Power On/Off" parameterValue="0"/>
              <parameter index="1" name="Level" parameterValue="0"/>
            </component>
            <component id="sendPan" powered="true"/>
          </sendSlot>
          <sendSlot preFader="false" sendOutputID="0" slotIndex="4">
            <component id="sendComponent" powered="false">
              <parameter index="0" name="Power On/Off" parameterValue="0"/>
              <parameter index="1" name="Level" parameterValue="0"/>
            </component>
            <component id="sendPan" powered="true"/>
          </sendSlot>
          <sendSlot preFader="false" sendOutputID="0" slotIndex="5">
            <component id="sendComponent" powered="false">
              <parameter index="0" name="Power On/Off" parameterValue="0"/>
              <parameter index="1" name="Level" parameterValue="0"/>
            </component>
            <component id="sendPan" powered="true"/>
          </sendSlot>
          <sendSlot preFader="false" sendOutputID="0" slotIndex="6">
            <component id="sendComponent" powered="false">
              <parameter index="0" name="Power On/Off" parameterValue="0"/>
              <parameter index="1" name="Level" parameterValue="0"/>
            </component>
            <component id="sendPan" powered="true"/>
          </sendSlot>
          <sendSlot preFader="false" sendOutputID="0" slotIndex="7">
            <component id="sendComponent" powered="false">
              <parameter index="0" name="Power On/Off" parameterValue="0"/>
              <parameter index="1" name="Level" parameterValue="0"/>
            </component>
            <component id="sendPan" powered="true"/>
          </sendSlot>
          <sendSlot preFader="false" sendOutputID="0" slotIndex="8">
            <component id="sendComponent" powered="false">
              <parameter index="0" name="Power On/Off" parameterValue="0"/>
              <parameter index="1" name="Level" parameterValue="0"/>
            </component>
            <component id="sendPan" powered="true"/>
          </sendSlot>
          <sendSlot preFader="false" sendOutputID="0" slotIndex="9">
            <component id="sendComponent" powered="false">
              <parameter index="0" name="Power On/Off" parameterValue="0"/>
              <parameter index="1" name="Level" parameterValue="0"/>
            </component>
            <component id="sendPan" powered="true"/>
          </sendSlot>
          <sendSlot preFader="false" sendOutputID="0" slotIndex="10">
            <component id="sendComponent" powered="false">
              <parameter index="0" name="Power On/Off" parameterValue="0"/>
              <parameter index="1" name="Level" parameterValue="0"/>
            </component>
            <component id="sendPan" powered="true"/>
          </sendSlot>
          <sendSlot preFader="false" sendOutputID="0" slotIndex="11">
            <component id="sendComponent" powered="false">
              <parameter index="0" name="Power On/Off" parameterValue="0"/>
              <parameter index="1" name="Level" parameterValue="0"/>
            </component>
            <component id="sendPan" powered="true"/>
          </sendSlot>
          <sendSlot preFader="false" sendOutputID="0" slotIndex="12">
            <component id="sendComponent" powered="false">
              <parameter index="0" name="Power On/Off" parameterValue="0"/>
              <parameter index="1" name="Level" parameterValue="0"/>
            </component>
            <component id="sendPan" powered="true"/>
          </sendSlot>
          <sendSlot preFader="false" sendOutputID="0" slotIndex="13">
            <component id="sendComponent" powered="false">
              <parameter index="0" name="Power On/Off" parameterValue="0"/>
              <parameter index="1" name="Level" parameterValue="0"/>
            </component>
            <component id="sendPan" powered="true"/>
          </sendSlot>
          <sendSlot preFader="false" sendOutputID="0" slotIndex="14">
            <component id="sendComponent" powered="false">
              <parameter index="0" name="Power On/Off" parameterValue="0"/>
              <parameter index="1" name="Level" parameterValue="0"/>
            </component>
            <component id="sendPan" powered="true"/>
          </sendSlot>
          <sendSlot preFader="false" sendOutputID="0" slotIndex="15">
            <component id="sendComponent" powered="false">
              <parameter index="0" name="Power On/Off" parameterValue="0"/>
              <parameter index="1" name="Level" parameterValue="0"/>
            </component>
            <component id="sendPan" powered="true"/>
          </sendSlot>
        </sendList>
        <audioClip clipAutoCrossfade="true" crossFadeHeadClipID="-1" crossFadeTailClipID="-1" endPoint="2417664" fileID="7" hue="-1" id="0" lockedInTime="false" looped="false" name="Papper tap_014" offline="false" select="false" sourceInPoint="0" sourceOutPoint="2417664" startPoint="0" zOrder="0">
          <component componentID="Audition.Fader" id="clipGain" name="volume" powered="true">
            <parameter index="0" name="volume" parameterValue="1"/>
            <parameter index="1" name="static gain" parameterValue="1"/>
          </component>
          <component componentID="Audition.Mute" id="clipMute" name="Mute" powered="true">
            <parameter index="0" parameterValue="0"/>
            <parameter index="1" name="mute" parameterValue="0"/>
          </component>
          <component componentID="Audition.StereoPanner" id="clipPan" name="StereoPanner" powered="true">
            <parameter index="0" name="Pan" parameterValue="0"/>
          </component>
          <fadeIn crossFadeLinkType="linkedAsymmetric" endPoint="0" shape="0" startPoint="0" type="cosine"/>
          <fadeOut crossFadeLinkType="linkedAsymmetric" endPoint="2417664" shape="0" startPoint="2417664" type="cosine"/>
          <take sourceInPoint="0"/>
          <editParameter parameterIndex="0" slotIndex="4294967281"/>
          <editParameter parameterIndex="0" slotIndex="4294967280"/>
          <channelMap>
            <channel index="0" sourceIndex="0"/>
            <channel index="1" sourceIndex="1"/>
          </channelMap>
        </audioClip>
        <audioClip clipAutoCrossfade="true" crossFadeHeadClipID="-1" crossFadeTailClipID="-1" endPoint="3794394" fileID="11" hue="-1" id="1" lockedInTime="false" looped="false" name="Papper tap_018" offline="false" select="false" sourceInPoint="0" sourceOutPoint="1207296" startPoint="2587098" zOrder="1">
          <component componentID="Audition.Fader" id="clipGain" name="volume" powered="true">
            <parameter index="0" name="volume" parameterValue="1"/>
            <parameter index="1" name="static gain" parameterValue="1"/>
          </component>
          <component componentID="Audition.Mute" id="clipMute" name="Mute" powered="true">
            <parameter index="0" parameterValue="0"/>
            <parameter index="1" name="mute" parameterValue="0"/>
          </component>
          <component componentID="Audition.StereoPanner" id="clipPan" name="StereoPanner" powered="true">
            <parameter index="0" name="Pan" parameterValue="0"/>
          </component>
          <fadeIn crossFadeLinkType="linkedAsymmetric" endPoint="0" shape="0" startPoint="0" type="cosine"/>
          <fadeOut crossFadeLinkType="linkedAsymmetric" endPoint="1207296" shape="0" startPoint="1207296" type="cosine"/>
          <take sourceInPoint="0"/>
          <editParameter parameterIndex="0" slotIndex="4294967281"/>
          <editParameter parameterIndex="0" slotIndex="4294967280"/>
          <channelMap>
            <channel index="0" sourceIndex="0"/>
            <channel index="1" sourceIndex="1"/>
          </channelMap>
        </audioClip>
        <audioClip clipAutoCrossfade="true" crossFadeHeadClipID="-1" crossFadeTailClipID="-1" endPoint="4842804" fileID="12" hue="-1" id="2" lockedInTime="false" looped="false" name="Papper tap_019" offline="false" select="false" sourceInPoint="0" sourceOutPoint="1009664" startPoint="3833140" zOrder="4">
          <component componentID="Audition.Fader" id="clipGain" name="volume" powered="true">
            <parameter index="0" name="volume" parameterValue="1"/>
            <parameter index="1" name="static gain" parameterValue="1"/>
          </component>
          <component componentID="Audition.Mute" id="clipMute" name="Mute" powered="true">
            <parameter index="0" parameterValue="0"/>
            <parameter index="1" name="mute" parameterValue="0"/>
          </component>
          <component componentID="Audition.StereoPanner" id="clipPan" name="StereoPanner" powered="true">
            <parameter index="0" name="Pan" parameterValue="0"/>
          </component>
          <fadeIn crossFadeLinkType="linkedAsymmetric" endPoint="0" shape="0" startPoint="0" type="cosine"/>
          <fadeOut crossFadeLinkType="linkedAsymmetric" endPoint="1009664" shape="0" startPoint="1009664" type="cosine"/>
          <take sourceInPoint="0"/>
          <editParameter parameterIndex="0" slotIndex="4294967281"/>
          <editParameter parameterIndex="0" slotIndex="4294967280"/>
          <channelMap>
            <channel index="0" sourceIndex="0"/>
            <channel index="1" sourceIndex="1"/>
          </channelMap>
        </audioClip>
      </audioTrack>
      <audioTrack automationLaneOpenState="false" id="10008" index="8" select="false" visible="true">
        <trackParameters trackHeight="354" trackHue="-1,00">
          <name>Papper dra</name>
        </trackParameters>
        <trackAudioParameters audioChannelType="stereo" automationMode="1" monitoring="false" recordArmed="false" solo="false" soloSafe="false">
          <trackOutput outputID="10000" type="trackID"/>
          <trackInput inputID="1"/>
          <component componentID="Audition.Fader" id="trackFader" name="volume" powered="true">
            <parameter index="0" name="volume" parameterValue="1"/>
            <parameter index="1" name="static gain" parameterValue="1"/>
          </component>
          <component componentID="Audition.Mute" id="trackMute" name="Mute" powered="true">
            <parameter index="0" parameterValue="1"/>
            <parameter index="1" name="mute" parameterValue="0"/>
          </component>
          <component componentID="Audition.StereoPanner" id="trackPan" name="StereoPanner" powered="true">
            <parameter index="0" name="Pan" parameterValue="0"/>
          </component>
          <component componentID="Audition.EQ" id="trackEQ" name="EQ" powered="false">
            <parameter index="0" name="Low Shelf Frequency" parameterValue="0.0009079"/>
            <parameter index="1" name="Low Shelf Gain" parameterValue="0.5"/>
            <parameter index="2" name="High Shelf Frequency" parameterValue="0.8161598"/>
            <parameter index="3" name="High Shelf Gain" parameterValue="0.5"/>
            <parameter index="4" name="EQ Band 1 Center Frequency" parameterValue="0.0013618"/>
            <parameter index="5" name="EQ Band 1 Q" parameterValue="0.0002"/>
            <parameter index="6" name="EQ Band 1 Gain" parameterValue="0.5"/>
            <parameter index="7" name="EQ Band 1 Enable" parameterValue="1"/>
            <parameter index="8" name="EQ Band 2 Center Frequency" parameterValue="0.0081707"/>
            <parameter index="9" name="EQ Band 2 Q" parameterValue="0.0002"/>
            <parameter index="10" name="EQ Band 2 Gain" parameterValue="0.5"/>
            <parameter index="11" name="EQ Band 2 Enable" parameterValue="1"/>
            <parameter index="12" name="EQ Band 3 Center Frequency" parameterValue="0.0354063"/>
            <parameter index="13" name="EQ Band 3 Q" parameterValue="0.0002"/>
            <parameter index="14" name="EQ Band 3 Gain" parameterValue="0.5"/>
            <parameter index="15" name="EQ Band 3 Enable" parameterValue="1"/>
            <parameter index="16" name="EQ Band 4 Center Frequency" parameterValue="0.1443486"/>
            <parameter index="17" name="EQ Band 4 Q" parameterValue="0.0002"/>
            <parameter index="18" name="EQ Band 4 Gain" parameterValue="0.5"/>
            <parameter index="19" name="EQ Band 4 Enable" parameterValue="1"/>
            <parameter index="20" name="EQ Band 5 Center Frequency" parameterValue="0.580118"/>
            <parameter index="21" name="EQ Band 5 Q" parameterValue="0.0002"/>
            <parameter index="22" name="EQ Band 5 Gain" parameterValue="0.5"/>
            <parameter index="23" name="EQ Band 5 Enable" parameterValue="1"/>
            <parameter index="24" name="Master Gain" parameterValue="0.6666667"/>
            <parameter index="25" name="ConstantQ" parameterValue="1"/>
            <parameter index="26" name="Low Shelf Filter Order" parameterValue="0"/>
            <parameter index="27" name="High Shelf Filter Order" parameterValue="0"/>
            <parameter index="28" name="Ultra-Quiet Mode" parameterValue="0"/>
            <parameter index="29" name="Low Shelf Enable" parameterValue="1"/>
            <parameter index="30" name="High Shelf Enable" parameterValue="1"/>
            <parameter index="31" name="Original Sample Rate" parameterValue="0.2296875"/>
            <parameter index="32" name="EQ Band 1 Bandwidth" parameterValue="0.0025"/>
            <parameter index="33" name="EQ Band 2 Bandwidth" parameterValue="0.01"/>
            <parameter index="34" name="EQ Band 3 Bandwidth" parameterValue="0.04"/>
            <parameter index="35" name="EQ Band 4 Bandwidth" parameterValue="0.16"/>
            <parameter index="36" name="EQ Band 5 Bandwidth" parameterValue="0.64"/>
            <parameter index="37" name="High-Pass Filter Enable" parameterValue="0"/>
            <parameter index="38" name="High-Pass Cutoff Frequency" parameterValue="0"/>
            <parameter index="39" name="High-Pass Slope" parameterValue="4"/>
            <parameter index="40" name="Low-Pass Filter Enable" parameterValue="0"/>
            <parameter index="41" name="Low-Pass Cutoff Frequency" parameterValue="0.906945"/>
            <parameter index="42" name="Low-Pass Slope" parameterValue="4"/>
            <parameter index="43" name="Bypass" parameterValue="0"/>
            <parameter index="44" name="LowGraphRange" parameterValue="1"/>
          </component>
        </trackAudioParameters>
        <editParameter parameterIndex="0" slotIndex="4294967280"/>
        <sendList>
          <sendSlot preFader="false" sendOutputID="0" slotIndex="0">
            <component id="sendComponent" powered="false">
              <parameter index="0" name="Power On/Off" parameterValue="0"/>
              <parameter index="1" name="Level" parameterValue="0"/>
            </component>
            <component id="sendPan" powered="true"/>
          </sendSlot>
          <sendSlot preFader="false" sendOutputID="0" slotIndex="1">
            <component id="sendComponent" powered="false">
              <parameter index="0" name="Power On/Off" parameterValue="0"/>
              <parameter index="1" name="Level" parameterValue="0"/>
            </component>
            <component id="sendPan" powered="true"/>
          </sendSlot>
          <sendSlot preFader="false" sendOutputID="0" slotIndex="2">
            <component id="sendComponent" powered="false">
              <parameter index="0" name="Power On/Off" parameterValue="0"/>
              <parameter index="1" name="Level" parameterValue="0"/>
            </component>
            <component id="sendPan" powered="true"/>
          </sendSlot>
          <sendSlot preFader="false" sendOutputID="0" slotIndex="3">
            <component id="sendComponent" powered="false">
              <parameter index="0" name="Power On/Off" parameterValue="0"/>
              <parameter index="1" name="Level" parameterValue="0"/>
            </component>
            <component id="sendPan" powered="true"/>
          </sendSlot>
          <sendSlot preFader="false" sendOutputID="0" slotIndex="4">
            <component id="sendComponent" powered="false">
              <parameter index="0" name="Power On/Off" parameterValue="0"/>
              <parameter index="1" name="Level" parameterValue="0"/>
            </component>
            <component id="sendPan" powered="true"/>
          </sendSlot>
          <sendSlot preFader="false" sendOutputID="0" slotIndex="5">
            <component id="sendComponent" powered="false">
              <parameter index="0" name="Power On/Off" parameterValue="0"/>
              <parameter index="1" name="Level" parameterValue="0"/>
            </component>
            <component id="sendPan" powered="true"/>
          </sendSlot>
          <sendSlot preFader="false" sendOutputID="0" slotIndex="6">
            <component id="sendComponent" powered="false">
              <parameter index="0" name="Power On/Off" parameterValue="0"/>
              <parameter index="1" name="Level" parameterValue="0"/>
            </component>
            <component id="sendPan" powered="true"/>
          </sendSlot>
          <sendSlot preFader="false" sendOutputID="0" slotIndex="7">
            <component id="sendComponent" powered="false">
              <parameter index="0" name="Power On/Off" parameterValue="0"/>
              <parameter index="1" name="Level" parameterValue="0"/>
            </component>
            <component id="sendPan" powered="true"/>
          </sendSlot>
          <sendSlot preFader="false" sendOutputID="0" slotIndex="8">
            <component id="sendComponent" powered="false">
              <parameter index="0" name="Power On/Off" parameterValue="0"/>
              <parameter index="1" name="Level" parameterValue="0"/>
            </component>
            <component id="sendPan" powered="true"/>
          </sendSlot>
          <sendSlot preFader="false" sendOutputID="0" slotIndex="9">
            <component id="sendComponent" powered="false">
              <parameter index="0" name="Power On/Off" parameterValue="0"/>
              <parameter index="1" name="Level" parameterValue="0"/>
            </component>
            <component id="sendPan" powered="true"/>
          </sendSlot>
          <sendSlot preFader="false" sendOutputID="0" slotIndex="10">
            <component id="sendComponent" powered="false">
              <parameter index="0" name="Power On/Off" parameterValue="0"/>
              <parameter index="1" name="Level" parameterValue="0"/>
            </component>
            <component id="sendPan" powered="true"/>
          </sendSlot>
          <sendSlot preFader="false" sendOutputID="0" slotIndex="11">
            <component id="sendComponent" powered="false">
              <parameter index="0" name="Power On/Off" parameterValue="0"/>
              <parameter index="1" name="Level" parameterValue="0"/>
            </component>
            <component id="sendPan" powered="true"/>
          </sendSlot>
          <sendSlot preFader="false" sendOutputID="0" slotIndex="12">
            <component id="sendComponent" powered="false">
              <parameter index="0" name="Power On/Off" parameterValue="0"/>
              <parameter index="1" name="Level" parameterValue="0"/>
            </component>
            <component id="sendPan" powered="true"/>
          </sendSlot>
          <sendSlot preFader="false" sendOutputID="0" slotIndex="13">
            <component id="sendComponent" powered="false">
              <parameter index="0" name="Power On/Off" parameterValue="0"/>
              <parameter index="1" name="Level" parameterValue="0"/>
            </component>
            <component id="sendPan" powered="true"/>
          </sendSlot>
          <sendSlot preFader="false" sendOutputID="0" slotIndex="14">
            <component id="sendComponent" powered="false">
              <parameter index="0" name="Power On/Off" parameterValue="0"/>
              <parameter index="1" name="Level" parameterValue="0"/>
            </component>
            <component id="sendPan" powered="true"/>
          </sendSlot>
          <sendSlot preFader="false" sendOutputID="0" slotIndex="15">
            <component id="sendComponent" powered="false">
              <parameter index="0" name="Power On/Off" parameterValue="0"/>
              <parameter index="1" name="Level" parameterValue="0"/>
            </component>
            <component id="sendPan" powered="true"/>
          </sendSlot>
        </sendList>
        <audioClip clipAutoCrossfade="true" crossFadeHeadClipID="-1" crossFadeTailClipID="-1" endPoint="1735680" fileID="8" hue="-1" id="0" lockedInTime="false" looped="false" name="Papper dra_015" offline="false" select="false" sourceInPoint="0" sourceOutPoint="234496" startPoint="1501184" zOrder="0">
          <component componentID="Audition.Fader" id="clipGain" name="volume" powered="true">
            <parameter index="0" name="volume" parameterValue="1"/>
            <parameter index="1" name="static gain" parameterValue="1"/>
          </component>
          <component componentID="Audition.Mute" id="clipMute" name="Mute" powered="true">
            <parameter index="0" parameterValue="0"/>
            <parameter index="1" name="mute" parameterValue="0"/>
          </component>
          <component componentID="Audition.StereoPanner" id="clipPan" name="StereoPanner" powered="true">
            <parameter index="0" name="Pan" parameterValue="0"/>
          </component>
          <fadeIn crossFadeLinkType="linkedAsymmetric" endPoint="0" shape="0" startPoint="0" type="cosine"/>
          <fadeOut crossFadeLinkType="linkedAsymmetric" endPoint="234496" shape="0" startPoint="234496" type="cosine"/>
          <take sourceInPoint="0"/>
          <editParameter parameterIndex="0" slotIndex="4294967281"/>
          <editParameter parameterIndex="0" slotIndex="4294967280"/>
          <channelMap>
            <channel index="0" sourceIndex="0"/>
            <channel index="1" sourceIndex="1"/>
          </channelMap>
        </audioClip>
        <audioClip clipAutoCrossfade="true" crossFadeHeadClipID="-1" crossFadeTailClipID="-1" endPoint="3993287" fileID="9" hue="-1" id="1" lockedInTime="false" looped="false" name="Papper dra_016" offline="false" select="false" sourceInPoint="0" sourceOutPoint="2234368" startPoint="1758919" zOrder="3">
          <component componentID="Audition.Fader" id="clipGain" name="volume" powered="true">
            <parameter index="0" name="volume" parameterValue="1"/>
            <parameter index="1" name="static gain" parameterValue="1"/>
          </component>
          <component componentID="Audition.Mute" id="clipMute" name="Mute" powered="true">
            <parameter index="0" parameterValue="0"/>
            <parameter index="1" name="mute" parameterValue="0"/>
          </component>
          <component componentID="Audition.StereoPanner" id="clipPan" name="StereoPanner" powered="true">
            <parameter index="0" name="Pan" parameterValue="0"/>
          </component>
          <fadeIn crossFadeLinkType="linkedAsymmetric" endPoint="0" shape="0" startPoint="0" type="cosine"/>
          <fadeOut crossFadeLinkType="linkedAsymmetric" endPoint="2234368" shape="0" startPoint="2234368" type="cosine"/>
          <take sourceInPoint="0"/>
          <editParameter parameterIndex="0" slotIndex="4294967281"/>
          <editParameter parameterIndex="0" slotIndex="4294967280"/>
          <channelMap>
            <channel index="0" sourceIndex="0"/>
            <channel index="1" sourceIndex="1"/>
          </channelMap>
        </audioClip>
        <audioClip clipAutoCrossfade="true" crossFadeHeadClipID="-1" crossFadeTailClipID="-1" endPoint="5160996" fileID="10" hue="-1" id="2" lockedInTime="false" looped="false" name="Papper dra_017" offline="false" select="false" sourceInPoint="0" sourceOutPoint="1067008" startPoint="4093988" zOrder="8">
          <component componentID="Audition.Fader" id="clipGain" name="volume" powered="true">
            <parameter index="0" name="volume" parameterValue="1"/>
            <parameter index="1" name="static gain" parameterValue="1"/>
          </component>
          <component componentID="Audition.Mute" id="clipMute" name="Mute" powered="true">
            <parameter index="0" parameterValue="0"/>
            <parameter index="1" name="mute" parameterValue="0"/>
          </component>
          <component componentID="Audition.StereoPanner" id="clipPan" name="StereoPanner" powered="true">
            <parameter index="0" name="Pan" parameterValue="0"/>
          </component>
          <fadeIn crossFadeLinkType="linkedAsymmetric" endPoint="0" shape="0" startPoint="0" type="cosine"/>
          <fadeOut crossFadeLinkType="linkedAsymmetric" endPoint="1067008" shape="0" startPoint="1067008" type="cosine"/>
          <take sourceInPoint="0"/>
          <editParameter parameterIndex="0" slotIndex="4294967281"/>
          <editParameter parameterIndex="0" slotIndex="4294967280"/>
          <channelMap>
            <channel index="0" sourceIndex="0"/>
            <channel index="1" sourceIndex="1"/>
          </channelMap>
        </audioClip>
      </audioTrack>
      <audioTrack automationLaneOpenState="false" id="10009" index="9" select="false" visible="true">
        <trackParameters trackHeight="354" trackHue="-1,00">
          <name>Papper break</name>
        </trackParameters>
        <trackAudioParameters audioChannelType="stereo" automationMode="1" monitoring="false" recordArmed="false" solo="false" soloSafe="false">
          <trackOutput outputID="10000" type="trackID"/>
          <trackInput inputID="1"/>
          <component componentID="Audition.Fader" id="trackFader" name="volume" powered="true">
            <parameter index="0" name="volume" parameterValue="1"/>
            <parameter index="1" name="static gain" parameterValue="1"/>
          </component>
          <component componentID="Audition.Mute" id="trackMute" name="Mute" powered="true">
            <parameter index="0" parameterValue="1"/>
            <parameter index="1" name="mute" parameterValue="0"/>
          </component>
          <component componentID="Audition.StereoPanner" id="trackPan" name="StereoPanner" powered="true">
            <parameter index="0" name="Pan" parameterValue="0"/>
          </component>
          <component componentID="Audition.EQ" id="trackEQ" name="EQ" powered="false">
            <parameter index="0" name="Low Shelf Frequency" parameterValue="0.0009079"/>
            <parameter index="1" name="Low Shelf Gain" parameterValue="0.5"/>
            <parameter index="2" name="High Shelf Frequency" parameterValue="0.8161598"/>
            <parameter index="3" name="High Shelf Gain" parameterValue="0.5"/>
            <parameter index="4" name="EQ Band 1 Center Frequency" parameterValue="0.0013618"/>
            <parameter index="5" name="EQ Band 1 Q" parameterValue="0.0002"/>
            <parameter index="6" name="EQ Band 1 Gain" parameterValue="0.5"/>
            <parameter index="7" name="EQ Band 1 Enable" parameterValue="1"/>
            <parameter index="8" name="EQ Band 2 Center Frequency" parameterValue="0.0081707"/>
            <parameter index="9" name="EQ Band 2 Q" parameterValue="0.0002"/>
            <parameter index="10" name="EQ Band 2 Gain" parameterValue="0.5"/>
            <parameter index="11" name="EQ Band 2 Enable" parameterValue="1"/>
            <parameter index="12" name="EQ Band 3 Center Frequency" parameterValue="0.0354063"/>
            <parameter index="13" name="EQ Band 3 Q" parameterValue="0.0002"/>
            <parameter index="14" name="EQ Band 3 Gain" parameterValue="0.5"/>
            <parameter index="15" name="EQ Band 3 Enable" parameterValue="1"/>
            <parameter index="16" name="EQ Band 4 Center Frequency" parameterValue="0.1443486"/>
            <parameter index="17" name="EQ Band 4 Q" parameterValue="0.0002"/>
            <parameter index="18" name="EQ Band 4 Gain" parameterValue="0.5"/>
            <parameter index="19" name="EQ Band 4 Enable" parameterValue="1"/>
            <parameter index="20" name="EQ Band 5 Center Frequency" parameterValue="0.580118"/>
            <parameter index="21" name="EQ Band 5 Q" parameterValue="0.0002"/>
            <parameter index="22" name="EQ Band 5 Gain" parameterValue="0.5"/>
            <parameter index="23" name="EQ Band 5 Enable" parameterValue="1"/>
            <parameter index="24" name="Master Gain" parameterValue="0.6666667"/>
            <parameter index="25" name="ConstantQ" parameterValue="1"/>
            <parameter index="26" name="Low Shelf Filter Order" parameterValue="0"/>
            <parameter index="27" name="High Shelf Filter Order" parameterValue="0"/>
            <parameter index="28" name="Ultra-Quiet Mode" parameterValue="0"/>
            <parameter index="29" name="Low Shelf Enable" parameterValue="1"/>
            <parameter index="30" name="High Shelf Enable" parameterValue="1"/>
            <parameter index="31" name="Original Sample Rate" parameterValue="0.2296875"/>
            <parameter index="32" name="EQ Band 1 Bandwidth" parameterValue="0.0025"/>
            <parameter index="33" name="EQ Band 2 Bandwidth" parameterValue="0.01"/>
            <parameter index="34" name="EQ Band 3 Bandwidth" parameterValue="0.04"/>
            <parameter index="35" name="EQ Band 4 Bandwidth" parameterValue="0.16"/>
            <parameter index="36" name="EQ Band 5 Bandwidth" parameterValue="0.64"/>
            <parameter index="37" name="High-Pass Filter Enable" parameterValue="0"/>
            <parameter index="38" name="High-Pass Cutoff Frequency" parameterValue="0"/>
            <parameter index="39" name="High-Pass Slope" parameterValue="4"/>
            <parameter index="40" name="Low-Pass Filter Enable" parameterValue="0"/>
            <parameter index="41" name="Low-Pass Cutoff Frequency" parameterValue="0.906945"/>
            <parameter index="42" name="Low-Pass Slope" parameterValue="4"/>
            <parameter index="43" name="Bypass" parameterValue="0"/>
            <parameter index="44" name="LowGraphRange" parameterValue="1"/>
          </component>
        </trackAudioParameters>
        <editParameter parameterIndex="0" slotIndex="4294967280"/>
        <sendList>
          <sendSlot preFader="false" sendOutputID="0" slotIndex="0">
            <component id="sendComponent" powered="false">
              <parameter index="0" name="Power On/Off" parameterValue="0"/>
              <parameter index="1" name="Level" parameterValue="0"/>
            </component>
            <component id="sendPan" powered="true"/>
          </sendSlot>
          <sendSlot preFader="false" sendOutputID="0" slotIndex="1">
            <component id="sendComponent" powered="false">
              <parameter index="0" name="Power On/Off" parameterValue="0"/>
              <parameter index="1" name="Level" parameterValue="0"/>
            </component>
            <component id="sendPan" powered="true"/>
          </sendSlot>
          <sendSlot preFader="false" sendOutputID="0" slotIndex="2">
            <component id="sendComponent" powered="false">
              <parameter index="0" name="Power On/Off" parameterValue="0"/>
              <parameter index="1" name="Level" parameterValue="0"/>
            </component>
            <component id="sendPan" powered="true"/>
          </sendSlot>
          <sendSlot preFader="false" sendOutputID="0" slotIndex="3">
            <component id="sendComponent" powered="false">
              <parameter index="0" name="Power On/Off" parameterValue="0"/>
              <parameter index="1" name="Level" parameterValue="0"/>
            </component>
            <component id="sendPan" powered="true"/>
          </sendSlot>
          <sendSlot preFader="false" sendOutputID="0" slotIndex="4">
            <component id="sendComponent" powered="false">
              <parameter index="0" name="Power On/Off" parameterValue="0"/>
              <parameter index="1" name="Level" parameterValue="0"/>
            </component>
            <component id="sendPan" powered="true"/>
          </sendSlot>
          <sendSlot preFader="false" sendOutputID="0" slotIndex="5">
            <component id="sendComponent" powered="false">
              <parameter index="0" name="Power On/Off" parameterValue="0"/>
              <parameter index="1" name="Level" parameterValue="0"/>
            </component>
            <component id="sendPan" powered="true"/>
          </sendSlot>
          <sendSlot preFader="false" sendOutputID="0" slotIndex="6">
            <component id="sendComponent" powered="false">
              <parameter index="0" name="Power On/Off" parameterValue="0"/>
              <parameter index="1" name="Level" parameterValue="0"/>
            </component>
            <component id="sendPan" powered="true"/>
          </sendSlot>
          <sendSlot preFader="false" sendOutputID="0" slotIndex="7">
            <component id="sendComponent" powered="false">
              <parameter index="0" name="Power On/Off" parameterValue="0"/>
              <parameter index="1" name="Level" parameterValue="0"/>
            </component>
            <component id="sendPan" powered="true"/>
          </sendSlot>
          <sendSlot preFader="false" sendOutputID="0" slotIndex="8">
            <component id="sendComponent" powered="false">
              <parameter index="0" name="Power On/Off" parameterValue="0"/>
              <parameter index="1" name="Level" parameterValue="0"/>
            </component>
            <component id="sendPan" powered="true"/>
          </sendSlot>
          <sendSlot preFader="false" sendOutputID="0" slotIndex="9">
            <component id="sendComponent" powered="false">
              <parameter index="0" name="Power On/Off" parameterValue="0"/>
              <parameter index="1" name="Level" parameterValue="0"/>
            </component>
            <component id="sendPan" powered="true"/>
          </sendSlot>
          <sendSlot preFader="false" sendOutputID="0" slotIndex="10">
            <component id="sendComponent" powered="false">
              <parameter index="0" name="Power On/Off" parameterValue="0"/>
              <parameter index="1" name="Level" parameterValue="0"/>
            </component>
            <component id="sendPan" powered="true"/>
          </sendSlot>
          <sendSlot preFader="false" sendOutputID="0" slotIndex="11">
            <component id="sendComponent" powered="false">
              <parameter index="0" name="Power On/Off" parameterValue="0"/>
              <parameter index="1" name="Level" parameterValue="0"/>
            </component>
            <component id="sendPan" powered="true"/>
          </sendSlot>
          <sendSlot preFader="false" sendOutputID="0" slotIndex="12">
            <component id="sendComponent" powered="false">
              <parameter index="0" name="Power On/Off" parameterValue="0"/>
              <parameter index="1" name="Level" parameterValue="0"/>
            </component>
            <component id="sendPan" powered="true"/>
          </sendSlot>
          <sendSlot preFader="false" sendOutputID="0" slotIndex="13">
            <component id="sendComponent" powered="false">
              <parameter index="0" name="Power On/Off" parameterValue="0"/>
              <parameter index="1" name="Level" parameterValue="0"/>
            </component>
            <component id="sendPan" powered="true"/>
          </sendSlot>
          <sendSlot preFader="false" sendOutputID="0" slotIndex="14">
            <component id="sendComponent" powered="false">
              <parameter index="0" name="Power On/Off" parameterValue="0"/>
              <parameter index="1" name="Level" parameterValue="0"/>
            </component>
            <component id="sendPan" powered="true"/>
          </sendSlot>
          <sendSlot preFader="false" sendOutputID="0" slotIndex="15">
            <component id="sendComponent" powered="false">
              <parameter index="0" name="Power On/Off" parameterValue="0"/>
              <parameter index="1" name="Level" parameterValue="0"/>
            </component>
            <component id="sendPan" powered="true"/>
          </sendSlot>
        </sendList>
        <audioClip clipAutoCrossfade="true" crossFadeHeadClipID="-1" crossFadeTailClipID="-1" endPoint="660480" fileID="13" hue="-1" id="0" lockedInTime="false" looped="false" name="Papper break_020" offline="false" select="false" sourceInPoint="0" sourceOutPoint="660480" startPoint="0" zOrder="2">
          <component componentID="Audition.Fader" id="clipGain" name="volume" powered="true">
            <parameter index="0" name="volume" parameterValue="1"/>
            <parameter index="1" name="static gain" parameterValue="1"/>
          </component>
          <component componentID="Audition.Mute" id="clipMute" name="Mute" powered="true">
            <parameter index="0" parameterValue="0"/>
            <parameter index="1" name="mute" parameterValue="0"/>
          </component>
          <component componentID="Audition.StereoPanner" id="clipPan" name="StereoPanner" powered="true">
            <parameter index="0" name="Pan" parameterValue="0"/>
          </component>
          <fadeIn crossFadeLinkType="linkedAsymmetric" endPoint="0" shape="0" startPoint="0" type="cosine"/>
          <fadeOut crossFadeLinkType="linkedAsymmetric" endPoint="660480" shape="0" startPoint="660480" type="cosine"/>
          <take sourceInPoint="0"/>
          <editParameter parameterIndex="0" slotIndex="4294967281"/>
          <editParameter parameterIndex="0" slotIndex="4294967280"/>
          <channelMap>
            <channel index="0" sourceIndex="0"/>
            <channel index="1" sourceIndex="1"/>
          </channelMap>
        </audioClip>
      </audioTrack>
      <audioTrack automationLaneOpenState="false" id="10010" index="10" select="false" visible="true">
        <trackParameters trackHeight="293" trackHue="-1,00">
          <name>Knap dra</name>
        </trackParameters>
        <trackAudioParameters audioChannelType="stereo" automationMode="1" monitoring="false" recordArmed="false" solo="false" soloSafe="false">
          <trackOutput outputID="10000" type="trackID"/>
          <trackInput inputID="1"/>
          <component componentID="Audition.Fader" id="trackFader" name="volume" powered="true">
            <parameter index="0" name="volume" parameterValue="1"/>
            <parameter index="1" name="static gain" parameterValue="1"/>
          </component>
          <component componentID="Audition.Mute" id="trackMute" name="Mute" powered="true">
            <parameter index="0" parameterValue="1"/>
            <parameter index="1" name="mute" parameterValue="0"/>
          </component>
          <component componentID="Audition.StereoPanner" id="trackPan" name="StereoPanner" powered="true">
            <parameter index="0" name="Pan" parameterValue="0"/>
          </component>
          <component componentID="Audition.EQ" id="trackEQ" name="EQ" powered="false">
            <parameter index="0" name="Low Shelf Frequency" parameterValue="0.0009079"/>
            <parameter index="1" name="Low Shelf Gain" parameterValue="0.5"/>
            <parameter index="2" name="High Shelf Frequency" parameterValue="0.8161598"/>
            <parameter index="3" name="High Shelf Gain" parameterValue="0.5"/>
            <parameter index="4" name="EQ Band 1 Center Frequency" parameterValue="0.0013618"/>
            <parameter index="5" name="EQ Band 1 Q" parameterValue="0.0002"/>
            <parameter index="6" name="EQ Band 1 Gain" parameterValue="0.5"/>
            <parameter index="7" name="EQ Band 1 Enable" parameterValue="1"/>
            <parameter index="8" name="EQ Band 2 Center Frequency" parameterValue="0.0081707"/>
            <parameter index="9" name="EQ Band 2 Q" parameterValue="0.0002"/>
            <parameter index="10" name="EQ Band 2 Gain" parameterValue="0.5"/>
            <parameter index="11" name="EQ Band 2 Enable" parameterValue="1"/>
            <parameter index="12" name="EQ Band 3 Center Frequency" parameterValue="0.0354063"/>
            <parameter index="13" name="EQ Band 3 Q" parameterValue="0.0002"/>
            <parameter index="14" name="EQ Band 3 Gain" parameterValue="0.5"/>
            <parameter index="15" name="EQ Band 3 Enable" parameterValue="1"/>
            <parameter index="16" name="EQ Band 4 Center Frequency" parameterValue="0.1443486"/>
            <parameter index="17" name="EQ Band 4 Q" parameterValue="0.0002"/>
            <parameter index="18" name="EQ Band 4 Gain" parameterValue="0.5"/>
            <parameter index="19" name="EQ Band 4 Enable" parameterValue="1"/>
            <parameter index="20" name="EQ Band 5 Center Frequency" parameterValue="0.580118"/>
            <parameter index="21" name="EQ Band 5 Q" parameterValue="0.0002"/>
            <parameter index="22" name="EQ Band 5 Gain" parameterValue="0.5"/>
            <parameter index="23" name="EQ Band 5 Enable" parameterValue="1"/>
            <parameter index="24" name="Master Gain" parameterValue="0.6666667"/>
            <parameter index="25" name="ConstantQ" parameterValue="1"/>
            <parameter index="26" name="Low Shelf Filter Order" parameterValue="0"/>
            <parameter index="27" name="High Shelf Filter Order" parameterValue="0"/>
            <parameter index="28" name="Ultra-Quiet Mode" parameterValue="0"/>
            <parameter index="29" name="Low Shelf Enable" parameterValue="1"/>
            <parameter index="30" name="High Shelf Enable" parameterValue="1"/>
            <parameter index="31" name="Original Sample Rate" parameterValue="0.2296875"/>
            <parameter index="32" name="EQ Band 1 Bandwidth" parameterValue="0.0025"/>
            <parameter index="33" name="EQ Band 2 Bandwidth" parameterValue="0.01"/>
            <parameter index="34" name="EQ Band 3 Bandwidth" parameterValue="0.04"/>
            <parameter index="35" name="EQ Band 4 Bandwidth" parameterValue="0.16"/>
            <parameter index="36" name="EQ Band 5 Bandwidth" parameterValue="0.64"/>
            <parameter index="37" name="High-Pass Filter Enable" parameterValue="0"/>
            <parameter index="38" name="High-Pass Cutoff Frequency" parameterValue="0"/>
            <parameter index="39" name="High-Pass Slope" parameterValue="4"/>
            <parameter index="40" name="Low-Pass Filter Enable" parameterValue="0"/>
            <parameter index="41" name="Low-Pass Cutoff Frequency" parameterValue="0.906945"/>
            <parameter index="42" name="Low-Pass Slope" parameterValue="4"/>
            <parameter index="43" name="Bypass" parameterValue="0"/>
            <parameter index="44" name="LowGraphRange" parameterValue="1"/>
          </component>
        </trackAudioParameters>
        <editParameter parameterIndex="0" slotIndex="4294967280"/>
        <sendList>
          <sendSlot preFader="false" sendOutputID="0" slotIndex="0">
            <component id="sendComponent" powered="false">
              <parameter index="0" name="Power On/Off" parameterValue="0"/>
              <parameter index="1" name="Level" parameterValue="0"/>
            </component>
            <component id="sendPan" powered="true"/>
          </sendSlot>
          <sendSlot preFader="false" sendOutputID="0" slotIndex="1">
            <component id="sendComponent" powered="false">
              <parameter index="0" name="Power On/Off" parameterValue="0"/>
              <parameter index="1" name="Level" parameterValue="0"/>
            </component>
            <component id="sendPan" powered="true"/>
          </sendSlot>
          <sendSlot preFader="false" sendOutputID="0" slotIndex="2">
            <component id="sendComponent" powered="false">
              <parameter index="0" name="Power On/Off" parameterValue="0"/>
              <parameter index="1" name="Level" parameterValue="0"/>
            </component>
            <component id="sendPan" powered="true"/>
          </sendSlot>
          <sendSlot preFader="false" sendOutputID="0" slotIndex="3">
            <component id="sendComponent" powered="false">
              <parameter index="0" name="Power On/Off" parameterValue="0"/>
              <parameter index="1" name="Level" parameterValue="0"/>
            </component>
            <component id="sendPan" powered="true"/>
          </sendSlot>
          <sendSlot preFader="false" sendOutputID="0" slotIndex="4">
            <component id="sendComponent" powered="false">
              <parameter index="0" name="Power On/Off" parameterValue="0"/>
              <parameter index="1" name="Level" parameterValue="0"/>
            </component>
            <component id="sendPan" powered="true"/>
          </sendSlot>
          <sendSlot preFader="false" sendOutputID="0" slotIndex="5">
            <component id="sendComponent" powered="false">
              <parameter index="0" name="Power On/Off" parameterValue="0"/>
              <parameter index="1" name="Level" parameterValue="0"/>
            </component>
            <component id="sendPan" powered="true"/>
          </sendSlot>
          <sendSlot preFader="false" sendOutputID="0" slotIndex="6">
            <component id="sendComponent" powered="false">
              <parameter index="0" name="Power On/Off" parameterValue="0"/>
              <parameter index="1" name="Level" parameterValue="0"/>
            </component>
            <component id="sendPan" powered="true"/>
          </sendSlot>
          <sendSlot preFader="false" sendOutputID="0" slotIndex="7">
            <component id="sendComponent" powered="false">
              <parameter index="0" name="Power On/Off" parameterValue="0"/>
              <parameter index="1" name="Level" parameterValue="0"/>
            </component>
            <component id="sendPan" powered="true"/>
          </sendSlot>
          <sendSlot preFader="false" sendOutputID="0" slotIndex="8">
            <component id="sendComponent" powered="false">
              <parameter index="0" name="Power On/Off" parameterValue="0"/>
              <parameter index="1" name="Level" parameterValue="0"/>
            </component>
            <component id="sendPan" powered="true"/>
          </sendSlot>
          <sendSlot preFader="false" sendOutputID="0" slotIndex="9">
            <component id="sendComponent" powered="false">
              <parameter index="0" name="Power On/Off" parameterValue="0"/>
              <parameter index="1" name="Level" parameterValue="0"/>
            </component>
            <component id="sendPan" powered="true"/>
          </sendSlot>
          <sendSlot preFader="false" sendOutputID="0" slotIndex="10">
            <component id="sendComponent" powered="false">
              <parameter index="0" name="Power On/Off" parameterValue="0"/>
              <parameter index="1" name="Level" parameterValue="0"/>
            </component>
            <component id="sendPan" powered="true"/>
          </sendSlot>
          <sendSlot preFader="false" sendOutputID="0" slotIndex="11">
            <component id="sendComponent" powered="false">
              <parameter index="0" name="Power On/Off" parameterValue="0"/>
              <parameter index="1" name="Level" parameterValue="0"/>
            </component>
            <component id="sendPan" powered="true"/>
          </sendSlot>
          <sendSlot preFader="false" sendOutputID="0" slotIndex="12">
            <component id="sendComponent" powered="false">
              <parameter index="0" name="Power On/Off" parameterValue="0"/>
              <parameter index="1" name="Level" parameterValue="0"/>
            </component>
            <component id="sendPan" powered="true"/>
          </sendSlot>
          <sendSlot preFader="false" sendOutputID="0" slotIndex="13">
            <component id="sendComponent" powered="false">
              <parameter index="0" name="Power On/Off" parameterValue="0"/>
              <parameter index="1" name="Level" parameterValue="0"/>
            </component>
            <component id="sendPan" powered="true"/>
          </sendSlot>
          <sendSlot preFader="false" sendOutputID="0" slotIndex="14">
            <component id="sendComponent" powered="false">
              <parameter index="0" name="Power On/Off" parameterValue="0"/>
              <parameter index="1" name="Level" parameterValue="0"/>
            </component>
            <component id="sendPan" powered="true"/>
          </sendSlot>
          <sendSlot preFader="false" sendOutputID="0" slotIndex="15">
            <component id="sendComponent" powered="false">
              <parameter index="0" name="Power On/Off" parameterValue="0"/>
              <parameter index="1" name="Level" parameterValue="0"/>
            </component>
            <component id="sendPan" powered="true"/>
          </sendSlot>
        </sendList>
        <audioClip clipAutoCrossfade="true" crossFadeHeadClipID="-1" crossFadeTailClipID="-1" endPoint="1903616" fileID="17" hue="-1" id="0" lockedInTime="false" looped="false" name="Knap dra_024" offline="false" select="false" sourceInPoint="0" sourceOutPoint="1903616" startPoint="0" zOrder="1">
          <component componentID="Audition.Fader" id="clipGain" name="volume" powered="true">
            <parameter index="0" name="volume" parameterValue="1"/>
            <parameter index="1" name="static gain" parameterValue="1"/>
          </component>
          <component componentID="Audition.Mute" id="clipMute" name="Mute" powered="true">
            <parameter index="0" parameterValue="0"/>
            <parameter index="1" name="mute" parameterValue="0"/>
          </component>
          <component componentID="Audition.StereoPanner" id="clipPan" name="StereoPanner" powered="true">
            <parameter index="0" name="Pan" parameterValue="0"/>
          </component>
          <fadeIn crossFadeLinkType="linkedAsymmetric" endPoint="0" shape="0" startPoint="0" type="cosine"/>
          <fadeOut crossFadeLinkType="linkedAsymmetric" endPoint="1903616" shape="0" startPoint="1903616" type="cosine"/>
          <take sourceInPoint="0"/>
          <editParameter parameterIndex="0" slotIndex="4294967281"/>
          <editParameter parameterIndex="0" slotIndex="4294967280"/>
          <channelMap>
            <channel index="0" sourceIndex="0"/>
            <channel index="1" sourceIndex="1"/>
          </channelMap>
        </audioClip>
        <audioClip clipAutoCrossfade="true" crossFadeHeadClipID="-1" crossFadeTailClipID="-1" endPoint="4465668" fileID="18" hue="-1" id="1" lockedInTime="false" looped="false" name="Knap dra_025" offline="false" select="false" sourceInPoint="0" sourceOutPoint="2487296" startPoint="1978372" zOrder="4">
          <component componentID="Audition.Fader" id="clipGain" name="volume" powered="true">
            <parameter index="0" name="volume" parameterValue="1"/>
            <parameter index="1" name="static gain" parameterValue="1"/>
          </component>
          <component componentID="Audition.Mute" id="clipMute" name="Mute" powered="true">
            <parameter index="0" parameterValue="0"/>
            <parameter index="1" name="mute" parameterValue="0"/>
          </component>
          <component componentID="Audition.StereoPanner" id="clipPan" name="StereoPanner" powered="true">
            <parameter index="0" name="Pan" parameterValue="0"/>
          </component>
          <fadeIn crossFadeLinkType="linkedAsymmetric" endPoint="0" shape="0" startPoint="0" type="cosine"/>
          <fadeOut crossFadeLinkType="linkedAsymmetric" endPoint="2487296" shape="0" startPoint="2487296" type="cosine"/>
          <take sourceInPoint="0"/>
          <editParameter parameterIndex="0" slotIndex="4294967281"/>
          <editParameter parameterIndex="0" slotIndex="4294967280"/>
          <channelMap>
            <channel index="0" sourceIndex="0"/>
            <channel index="1" sourceIndex="1"/>
          </channelMap>
        </audioClip>
        <audioClip clipAutoCrossfade="true" crossFadeHeadClipID="-1" crossFadeTailClipID="-1" endPoint="5522060" fileID="19" hue="-1" id="2" lockedInTime="false" looped="false" name="Knap dra_026" offline="false" select="false" sourceInPoint="0" sourceOutPoint="883712" startPoint="4638348" zOrder="11">
          <component componentID="Audition.Fader" id="clipGain" name="volume" powered="true">
            <parameter index="0" name="volume" parameterValue="1"/>
            <parameter index="1" name="static gain" parameterValue="1"/>
          </component>
          <component componentID="Audition.Mute" id="clipMute" name="Mute" powered="true">
            <parameter index="0" parameterValue="0"/>
            <parameter index="1" name="mute" parameterValue="0"/>
          </component>
          <component componentID="Audition.StereoPanner" id="clipPan" name="StereoPanner" powered="true">
            <parameter index="0" name="Pan" parameterValue="0"/>
          </component>
          <fadeIn crossFadeLinkType="linkedAsymmetric" endPoint="0" shape="0" startPoint="0" type="cosine"/>
          <fadeOut crossFadeLinkType="linkedAsymmetric" endPoint="883712" shape="0" startPoint="883712" type="cosine"/>
          <take sourceInPoint="0"/>
          <editParameter parameterIndex="0" slotIndex="4294967281"/>
          <editParameter parameterIndex="0" slotIndex="4294967280"/>
          <channelMap>
            <channel index="0" sourceIndex="0"/>
            <channel index="1" sourceIndex="1"/>
          </channelMap>
        </audioClip>
        <audioClip clipAutoCrossfade="true" crossFadeHeadClipID="-1" crossFadeTailClipID="-1" endPoint="6830747" fileID="20" hue="-1" id="3" lockedInTime="false" looped="false" name="Knap dra_027" offline="false" select="false" sourceInPoint="0" sourceOutPoint="1137664" startPoint="5693083" zOrder="14">
          <component componentID="Audition.Fader" id="clipGain" name="volume" powered="true">
            <parameter index="0" name="volume" parameterValue="1"/>
            <parameter index="1" name="static gain" parameterValue="1"/>
          </component>
          <component componentID="Audition.Mute" id="clipMute" name="Mute" powered="true">
            <parameter index="0" parameterValue="0"/>
            <parameter index="1" name="mute" parameterValue="0"/>
          </component>
          <component componentID="Audition.StereoPanner" id="clipPan" name="StereoPanner" powered="true">
            <parameter index="0" name="Pan" parameterValue="0"/>
          </component>
          <fadeIn crossFadeLinkType="linkedAsymmetric" endPoint="0" shape="0" startPoint="0" type="cosine"/>
          <fadeOut crossFadeLinkType="linkedAsymmetric" endPoint="1137664" shape="0" startPoint="1137664" type="cosine"/>
          <take sourceInPoint="0"/>
          <editParameter parameterIndex="0" slotIndex="4294967281"/>
          <editParameter parameterIndex="0" slotIndex="4294967280"/>
          <channelMap>
            <channel index="0" sourceIndex="0"/>
            <channel index="1" sourceIndex="1"/>
          </channelMap>
        </audioClip>
        <audioClip clipAutoCrossfade="true" crossFadeHeadClipID="-1" crossFadeTailClipID="-1" endPoint="8819754" fileID="21" hue="-1" id="4" lockedInTime="false" looped="false" name="Knap dra_028" offline="false" select="false" sourceInPoint="0" sourceOutPoint="1783808" startPoint="7035946" zOrder="15">
          <component componentID="Audition.Fader" id="clipGain" name="volume" powered="true">
            <parameter index="0" name="volume" parameterValue="1"/>
            <parameter index="1" name="static gain" parameterValue="1"/>
          </component>
          <component componentID="Audition.Mute" id="clipMute" name="Mute" powered="true">
            <parameter index="0" parameterValue="0"/>
            <parameter index="1" name="mute" parameterValue="0"/>
          </component>
          <component componentID="Audition.StereoPanner" id="clipPan" name="StereoPanner" powered="true">
            <parameter index="0" name="Pan" parameterValue="0"/>
          </component>
          <fadeIn crossFadeLinkType="linkedAsymmetric" endPoint="0" shape="0" startPoint="0" type="cosine"/>
          <fadeOut crossFadeLinkType="linkedAsymmetric" endPoint="1783808" shape="0" startPoint="1783808" type="cosine"/>
          <take sourceInPoint="0"/>
          <editParameter parameterIndex="0" slotIndex="4294967281"/>
          <editParameter parameterIndex="0" slotIndex="4294967280"/>
          <channelMap>
            <channel index="0" sourceIndex="0"/>
            <channel index="1" sourceIndex="1"/>
          </channelMap>
        </audioClip>
        <audioClip clipAutoCrossfade="true" crossFadeHeadClipID="-1" crossFadeTailClipID="-1" endPoint="9369980" fileID="22" hue="-1" id="5" lockedInTime="false" looped="false" name="Knap dra_029" offline="false" select="false" sourceInPoint="0" sourceOutPoint="473088" startPoint="8896892" zOrder="20">
          <component componentID="Audition.Fader" id="clipGain" name="volume" powered="true">
            <parameter index="0" name="volume" parameterValue="1"/>
            <parameter index="1" name="static gain" parameterValue="1"/>
          </component>
          <component componentID="Audition.Mute" id="clipMute" name="Mute" powered="true">
            <parameter index="0" parameterValue="0"/>
            <parameter index="1" name="mute" parameterValue="0"/>
          </component>
          <component componentID="Audition.StereoPanner" id="clipPan" name="StereoPanner" powered="true">
            <parameter index="0" name="Pan" parameterValue="0"/>
          </component>
          <fadeIn crossFadeLinkType="linkedAsymmetric" endPoint="0" shape="0" startPoint="0" type="cosine"/>
          <fadeOut crossFadeLinkType="linkedAsymmetric" endPoint="473088" shape="0" startPoint="473088" type="cosine"/>
          <take sourceInPoint="0"/>
          <editParameter parameterIndex="0" slotIndex="4294967281"/>
          <editParameter parameterIndex="0" slotIndex="4294967280"/>
          <channelMap>
            <channel index="0" sourceIndex="0"/>
            <channel index="1" sourceIndex="1"/>
          </channelMap>
        </audioClip>
        <audioClip clipAutoCrossfade="true" crossFadeHeadClipID="-1" crossFadeTailClipID="-1" endPoint="9929482" fileID="23" hue="-1" id="6" lockedInTime="false" looped="false" name="Knap dra_030" offline="false" select="false" sourceInPoint="0" sourceOutPoint="455680" startPoint="9473802" zOrder="23">
          <component componentID="Audition.Fader" id="clipGain" name="volume" powered="true">
            <parameter index="0" name="volume" parameterValue="1"/>
            <parameter index="1" name="static gain" parameterValue="1"/>
          </component>
          <component componentID="Audition.Mute" id="clipMute" name="Mute" powered="true">
            <parameter index="0" parameterValue="0"/>
            <parameter index="1" name="mute" parameterValue="0"/>
          </component>
          <component componentID="Audition.StereoPanner" id="clipPan" name="StereoPanner" powered="true">
            <parameter index="0" name="Pan" parameterValue="0"/>
          </component>
          <fadeIn crossFadeLinkType="linkedAsymmetric" endPoint="0" shape="0" startPoint="0" type="cosine"/>
          <fadeOut crossFadeLinkType="linkedAsymmetric" endPoint="455680" shape="0" startPoint="455680" type="cosine"/>
          <take sourceInPoint="0"/>
          <editParameter parameterIndex="0" slotIndex="4294967281"/>
          <editParameter parameterIndex="0" slotIndex="4294967280"/>
          <channelMap>
            <channel index="0" sourceIndex="0"/>
            <channel index="1" sourceIndex="1"/>
          </channelMap>
        </audioClip>
        <audioClip clipAutoCrossfade="true" crossFadeHeadClipID="-1" crossFadeTailClipID="-1" endPoint="10537461" fileID="24" hue="-1" id="7" lockedInTime="false" looped="false" name="Knap dra_031" offline="false" select="false" sourceInPoint="0" sourceOutPoint="560128" startPoint="9977333" zOrder="24">
          <component componentID="Audition.Fader" id="clipGain" name="volume" powered="true">
            <parameter index="0" name="volume" parameterValue="1"/>
            <parameter index="1" name="static gain" parameterValue="1"/>
          </component>
          <component componentID="Audition.Mute" id="clipMute" name="Mute" powered="true">
            <parameter index="0" parameterValue="0"/>
            <parameter index="1" name="mute" parameterValue="0"/>
          </component>
          <component componentID="Audition.StereoPanner" id="clipPan" name="StereoPanner" powered="true">
            <parameter index="0" name="Pan" parameterValue="0"/>
          </component>
          <fadeIn crossFadeLinkType="linkedAsymmetric" endPoint="0" shape="0" startPoint="0" type="cosine"/>
          <fadeOut crossFadeLinkType="linkedAsymmetric" endPoint="560128" shape="0" startPoint="560128" type="cosine"/>
          <take sourceInPoint="0"/>
          <editParameter parameterIndex="0" slotIndex="4294967281"/>
          <editParameter parameterIndex="0" slotIndex="4294967280"/>
          <channelMap>
            <channel index="0" sourceIndex="0"/>
            <channel index="1" sourceIndex="1"/>
          </channelMap>
        </audioClip>
        <audioClip clipAutoCrossfade="true" crossFadeHeadClipID="-1" crossFadeTailClipID="-1" endPoint="11800053" fileID="25" hue="-1" id="8" lockedInTime="false" looped="false" name="Knap dra_032" offline="false" select="false" sourceInPoint="0" sourceOutPoint="1262592" startPoint="10537461" zOrder="27">
          <component componentID="Audition.Fader" id="clipGain" name="volume" powered="true">
            <parameter index="0" name="volume" parameterValue="1"/>
            <parameter index="1" name="static gain" parameterValue="1"/>
          </component>
          <component componentID="Audition.Mute" id="clipMute" name="Mute" powered="true">
            <parameter index="0" parameterValue="0"/>
            <parameter index="1" name="mute" parameterValue="0"/>
          </component>
          <component componentID="Audition.StereoPanner" id="clipPan" name="StereoPanner" powered="true">
            <parameter index="0" name="Pan" parameterValue="0"/>
          </component>
          <fadeIn crossFadeLinkType="linkedAsymmetric" endPoint="0" shape="0" startPoint="0" type="cosine"/>
          <fadeOut crossFadeLinkType="linkedAsymmetric" endPoint="1262592" shape="0" startPoint="1262592" type="cosine"/>
          <take sourceInPoint="0"/>
          <editParameter parameterIndex="0" slotIndex="4294967281"/>
          <editParameter parameterIndex="0" slotIndex="4294967280"/>
          <channelMap>
            <channel index="0" sourceIndex="0"/>
            <channel index="1" sourceIndex="1"/>
          </channelMap>
        </audioClip>
      </audioTrack>
      <masterTrack automationLaneOpenState="false" id="10000" index="11" select="false" visible="true">
        <trackParameters trackHeight="293" trackHue="-1,00">
          <name>Master</name>
        </trackParameters>
        <trackAudioParameters audioChannelType="stereo" automationMode="1" monitoring="false" recordArmed="false" solo="true" soloSafe="true">
          <trackOutput outputID="1" type="hardwareOutput"/>
          <trackInput inputID="-1"/>
          <component componentID="Audition.Fader" id="trackFader" name="volume" powered="true">
            <parameter index="0" name="volume" parameterValue="1"/>
            <parameter index="1" name="static gain" parameterValue="1"/>
          </component>
          <component componentID="Audition.Mute" id="trackMute" name="Mute" powered="true">
            <parameter index="0" parameterValue="0"/>
            <parameter index="1" name="mute" parameterValue="0"/>
          </component>
          <component componentID="Audition.StereoPanner" id="trackPan" name="StereoPanner" powered="true">
            <parameter index="0" name="Pan" parameterValue="0"/>
          </component>
          <component componentID="Audition.EQ" id="trackEQ" name="EQ" powered="false">
            <parameter index="0" name="Low Shelf Frequency" parameterValue="0.0009079"/>
            <parameter index="1" name="Low Shelf Gain" parameterValue="0.5"/>
            <parameter index="2" name="High Shelf Frequency" parameterValue="0.8161598"/>
            <parameter index="3" name="High Shelf Gain" parameterValue="0.5"/>
            <parameter index="4" name="EQ Band 1 Center Frequency" parameterValue="0.0013618"/>
            <parameter index="5" name="EQ Band 1 Q" parameterValue="0.0002"/>
            <parameter index="6" name="EQ Band 1 Gain" parameterValue="0.5"/>
            <parameter index="7" name="EQ Band 1 Enable" parameterValue="1"/>
            <parameter index="8" name="EQ Band 2 Center Frequency" parameterValue="0.0081707"/>
            <parameter index="9" name="EQ Band 2 Q" parameterValue="0.0002"/>
            <parameter index="10" name="EQ Band 2 Gain" parameterValue="0.5"/>
            <parameter index="11" name="EQ Band 2 Enable" parameterValue="1"/>
            <parameter index="12" name="EQ Band 3 Center Frequency" parameterValue="0.0354063"/>
            <parameter index="13" name="EQ Band 3 Q" parameterValue="0.0002"/>
            <parameter index="14" name="EQ Band 3 Gain" parameterValue="0.5"/>
            <parameter index="15" name="EQ Band 3 Enable" parameterValue="1"/>
            <parameter index="16" name="EQ Band 4 Center Frequency" parameterValue="0.1443486"/>
            <parameter index="17" name="EQ Band 4 Q" parameterValue="0.0002"/>
            <parameter index="18" name="EQ Band 4 Gain" parameterValue="0.5"/>
            <parameter index="19" name="EQ Band 4 Enable" parameterValue="1"/>
            <parameter index="20" name="EQ Band 5 Center Frequency" parameterValue="0.580118"/>
            <parameter index="21" name="EQ Band 5 Q" parameterValue="0.0002"/>
            <parameter index="22" name="EQ Band 5 Gain" parameterValue="0.5"/>
            <parameter index="23" name="EQ Band 5 Enable" parameterValue="1"/>
            <parameter index="24" name="Master Gain" parameterValue="0.6666667"/>
            <parameter index="25" name="ConstantQ" parameterValue="1"/>
            <parameter index="26" name="Low Shelf Filter Order" parameterValue="0"/>
            <parameter index="27" name="High Shelf Filter Order" parameterValue="0"/>
            <parameter index="28" name="Ultra-Quiet Mode" parameterValue="0"/>
            <parameter index="29" name="Low Shelf Enable" parameterValue="1"/>
            <parameter index="30" name="High Shelf Enable" parameterValue="1"/>
            <parameter index="31" name="Original Sample Rate" parameterValue="0.2296875"/>
            <parameter index="32" name="EQ Band 1 Bandwidth" parameterValue="0.0025"/>
            <parameter index="33" name="EQ Band 2 Bandwidth" parameterValue="0.01"/>
            <parameter index="34" name="EQ Band 3 Bandwidth" parameterValue="0.04"/>
            <parameter index="35" name="EQ Band 4 Bandwidth" parameterValue="0.16"/>
            <parameter index="36" name="EQ Band 5 Bandwidth" parameterValue="0.64"/>
            <parameter index="37" name="High-Pass Filter Enable" parameterValue="0"/>
            <parameter index="38" name="High-Pass Cutoff Frequency" parameterValue="0"/>
            <parameter index="39" name="High-Pass Slope" parameterValue="4"/>
            <parameter index="40" name="Low-Pass Filter Enable" parameterValue="0"/>
            <parameter index="41" name="Low-Pass Cutoff Frequency" parameterValue="0.906945"/>
            <parameter index="42" name="Low-Pass Slope" parameterValue="4"/>
            <parameter index="43" name="Bypass" parameterValue="0"/>
            <parameter index="44" name="LowGraphRange" parameterValue="1"/>
          </component>
        </trackAudioParameters>
        <editParameter parameterIndex="0" slotIndex="4294967280"/>
      </masterTrack>
    </tracks>
    <sessionState ctiPosition="6356199" smpteStart="0">
      <selectionState selectionDuration="0" selectionStart="6356199"/>
      <viewState horizontalViewDuration="231350" horizontalViewStart="0" trackControlsWidth="224" verticalScrollOffset="0"/>
      <timeFormatState beatsPerBar="4" beatsPerMinute="120" customFrameRate="12" linkToDefaultTimeSettings="true" noteLength="4" subdivisions="16" timeCodeDropFrame="false" timeCodeFrameRate="30" timeCodeNTSC="false" timeFormat="timeFormatDecimal"/>
      <mixingOptionState defaultPanModeLogarithmic="false" panPower="-3"/>
    </sessionState>
    <xmpMetadata><![CDATA[<?xpacket begin="﻿" id="W5M0MpCehiHzreSzNTczkc9d"?>
<x:xmpmeta xmlns:x="adobe:ns:meta/" x:xmptk="Adobe XMP Core 5.5-c014 79.151805, 2013/04/09-12:08:21        ">
   <rdf:RDF xmlns:rdf="http://www.w3.org/1999/02/22-rdf-syntax-ns#">
      <rdf:Description rdf:about=""
            xmlns:xmp="http://ns.adobe.com/xap/1.0/"
            xmlns:xmpMM="http://ns.adobe.com/xap/1.0/mm/"
            xmlns:stEvt="http://ns.adobe.com/xap/1.0/sType/ResourceEvent#"
            xmlns:stRef="http://ns.adobe.com/xap/1.0/sType/ResourceRef#"
            xmlns:dc="http://purl.org/dc/elements/1.1/"
            xmlns:xmpDM="http://ns.adobe.com/xmp/1.0/DynamicMedia/">
         <xmp:CreatorTool>Adobe Audition CC (Windows)</xmp:CreatorTool>
         <xmp:CreateDate>2015-05-15T00:36:45+02:00</xmp:CreateDate>
         <xmp:MetadataDate>2015-05-17T03:10:37+02:00</xmp:MetadataDate>
         <xmp:ModifyDate>2015-05-17T03:10:37+02:00</xmp:ModifyDate>
         <xmpMM:InstanceID>xmp.iid:85029190-52bb-1b4d-8f3b-593a00e645b3</xmpMM:InstanceID>
         <xmpMM:DocumentID>xmp.did:8fa26206-9c0b-c143-bbaf-65ffc2abb106</xmpMM:DocumentID>
         <xmpMM:OriginalDocumentID>xmp.did:480546e9-b1de-1045-952d-481962468364</xmpMM:OriginalDocumentID>
         <xmpMM:History>
            <rdf:Seq>
               <rdf:li rdf:parseType="Resource">
                  <stEvt:action>saved</stEvt:action>
                  <stEvt:instanceID>xmp.iid:480546e9-b1de-1045-952d-481962468364</stEvt:instanceID>
                  <stEvt:when>2015-05-15T00:36:45+02:00</stEvt:when>
                  <stEvt:softwareAgent>Adobe Audition CC (Windows)</stEvt:softwareAgent>
                  <stEvt:changed>/metadata</stEvt:changed>
               </rdf:li>
               <rdf:li rdf:parseType="Resource">
                  <stEvt:action>saved</stEvt:action>
                  <stEvt:instanceID>xmp.iid:e97eeb8a-1a72-8847-989f-f7dcc2c2cb65</stEvt:instanceID>
                  <stEvt:when>2015-05-15T00:36:45+02:00</stEvt:when>
                  <stEvt:softwareAgent>Adobe Audition CC (Windows)</stEvt:softwareAgent>
                  <stEvt:changed>/metadata</stEvt:changed>
               </rdf:li>
               <rdf:li rdf:parseType="Resource">
                  <stEvt:action>saved</stEvt:action>
                  <stEvt:instanceID>xmp.iid:821b6ed4-bc6d-1b4d-abec-dfc5da1cbecd</stEvt:instanceID>
                  <stEvt:when>2015-05-15T00:36:45+02:00</stEvt:when>
                  <stEvt:softwareAgent>Adobe Audition CC (Windows)</stEvt:softwareAgent>
                  <stEvt:changed>/</stEvt:changed>
               </rdf:li>
               <rdf:li rdf:parseType="Resource">
                  <stEvt:action>saved</stEvt:action>
                  <stEvt:instanceID>xmp.iid:f6486ad2-a2aa-0245-a371-fcb88de7e2ac</stEvt:instanceID>
                  <stEvt:when>2015-05-15T00:42:49+02:00</stEvt:when>
                  <stEvt:softwareAgent>Adobe Audition CC (Windows)</stEvt:softwareAgent>
                  <stEvt:changed>/metadata</stEvt:changed>
               </rdf:li>
               <rdf:li rdf:parseType="Resource">
                  <stEvt:action>saved</stEvt:action>
                  <stEvt:instanceID>xmp.iid:eb857f57-57d8-1a43-be74-93a7cdcebef5</stEvt:instanceID>
                  <stEvt:when>2015-05-15T00:42:49+02:00</stEvt:when>
                  <stEvt:softwareAgent>Adobe Audition CC (Windows)</stEvt:softwareAgent>
                  <stEvt:changed>/</stEvt:changed>
               </rdf:li>
               <rdf:li rdf:parseType="Resource">
                  <stEvt:action>saved</stEvt:action>
                  <stEvt:instanceID>xmp.iid:429f9c5f-76be-a14b-bd84-09cf6e6d4070</stEvt:instanceID>
                  <stEvt:when>2015-05-15T01:48:58+02:00</stEvt:when>
                  <stEvt:softwareAgent>Adobe Audition CC (Windows)</stEvt:softwareAgent>
                  <stEvt:changed>/metadata</stEvt:changed>
               </rdf:li>
               <rdf:li rdf:parseType="Resource">
                  <stEvt:action>saved</stEvt:action>
                  <stEvt:instanceID>xmp.iid:d0faca21-1d9c-f548-bcc3-68b50be03519</stEvt:instanceID>
                  <stEvt:when>2015-05-15T01:48:58+02:00</stEvt:when>
                  <stEvt:softwareAgent>Adobe Audition CC (Windows)</stEvt:softwareAgent>
                  <stEvt:changed>/</stEvt:changed>
               </rdf:li>
               <rdf:li rdf:parseType="Resource">
                  <stEvt:action>saved</stEvt:action>
                  <stEvt:instanceID>xmp.iid:88933d00-4c78-2e43-bfdd-1a99292f4b94</stEvt:instanceID>
                  <stEvt:when>2015-05-15T02:08:33+02:00</stEvt:when>
                  <stEvt:softwareAgent>Adobe Audition CC (Windows)</stEvt:softwareAgent>
                  <stEvt:changed>/metadata</stEvt:changed>
               </rdf:li>
               <rdf:li rdf:parseType="Resource">
                  <stEvt:action>saved</stEvt:action>
                  <stEvt:instanceID>xmp.iid:f4c8ee98-f3e5-1644-9aa5-7f7fc9724cef</stEvt:instanceID>
                  <stEvt:when>2015-05-15T02:08:33+02:00</stEvt:when>
                  <stEvt:softwareAgent>Adobe Audition CC (Windows)</stEvt:softwareAgent>
                  <stEvt:changed>/</stEvt:changed>
               </rdf:li>
               <rdf:li rdf:parseType="Resource">
                  <stEvt:action>saved</stEvt:action>
                  <stEvt:instanceID>xmp.iid:c8c0e345-5238-a146-b799-fb060950db3b</stEvt:instanceID>
                  <stEvt:when>2015-05-15T02:18:58+02:00</stEvt:when>
                  <stEvt:softwareAgent>Adobe Audition CC (Windows)</stEvt:softwareAgent>
                  <stEvt:changed>/metadata</stEvt:changed>
               </rdf:li>
               <rdf:li rdf:parseType="Resource">
                  <stEvt:action>saved</stEvt:action>
                  <stEvt:instanceID>xmp.iid:d63d165c-36bb-264c-b60c-01460077bcf5</stEvt:instanceID>
                  <stEvt:when>2015-05-15T02:18:58+02:00</stEvt:when>
                  <stEvt:softwareAgent>Adobe Audition CC (Windows)</stEvt:softwareAgent>
                  <stEvt:changed>/</stEvt:changed>
               </rdf:li>
               <rdf:li rdf:parseType="Resource">
                  <stEvt:action>saved</stEvt:action>
                  <stEvt:instanceID>xmp.iid:0365455d-68e0-a54b-8b33-ba073a87a5d3</stEvt:instanceID>
                  <stEvt:when>2015-05-16T17:48:47+02:00</stEvt:when>
                  <stEvt:softwareAgent>Adobe Audition CC (Windows)</stEvt:softwareAgent>
                  <stEvt:changed>/metadata</stEvt:changed>
               </rdf:li>
               <rdf:li rdf:parseType="Resource">
                  <stEvt:action>saved</stEvt:action>
                  <stEvt:instanceID>xmp.iid:e6b70568-4c4f-394d-b1e0-3e2fe60bfd47</stEvt:instanceID>
                  <stEvt:when>2015-05-16T17:48:47+02:00</stEvt:when>
                  <stEvt:softwareAgent>Adobe Audition CC (Windows)</stEvt:softwareAgent>
                  <stEvt:changed>/</stEvt:changed>
               </rdf:li>
               <rdf:li rdf:parseType="Resource">
                  <stEvt:action>saved</stEvt:action>
                  <stEvt:instanceID>xmp.iid:7612b655-7af4-404d-b1e1-4948fe37355e</stEvt:instanceID>
                  <stEvt:when>2015-05-16T17:58:47+02:00</stEvt:when>
                  <stEvt:softwareAgent>Adobe Audition CC (Windows)</stEvt:softwareAgent>
                  <stEvt:changed>/metadata</stEvt:changed>
               </rdf:li>
               <rdf:li rdf:parseType="Resource">
                  <stEvt:action>saved</stEvt:action>
                  <stEvt:instanceID>xmp.iid:ff8a6aa7-6243-c641-a420-93737c6ae366</stEvt:instanceID>
                  <stEvt:when>2015-05-16T17:58:47+02:00</stEvt:when>
                  <stEvt:softwareAgent>Adobe Audition CC (Windows)</stEvt:softwareAgent>
                  <stEvt:changed>/</stEvt:changed>
               </rdf:li>
               <rdf:li rdf:parseType="Resource">
                  <stEvt:action>saved</stEvt:action>
                  <stEvt:instanceID>xmp.iid:71dcb16c-53d3-814c-87cb-6fc7b419e6c1</stEvt:instanceID>
                  <stEvt:when>2015-05-16T18:58:17+02:00</stEvt:when>
                  <stEvt:softwareAgent>Adobe Audition CC (Windows)</stEvt:softwareAgent>
                  <stEvt:changed>/metadata</stEvt:changed>
               </rdf:li>
               <rdf:li rdf:parseType="Resource">
                  <stEvt:action>saved</stEvt:action>
                  <stEvt:instanceID>xmp.iid:960756b0-ed43-5f4e-b3bf-9dfe8e57a76c</stEvt:instanceID>
                  <stEvt:when>2015-05-16T18:58:17+02:00</stEvt:when>
                  <stEvt:softwareAgent>Adobe Audition CC (Windows)</stEvt:softwareAgent>
                  <stEvt:changed>/</stEvt:changed>
               </rdf:li>
               <rdf:li rdf:parseType="Resource">
                  <stEvt:action>saved</stEvt:action>
                  <stEvt:instanceID>xmp.iid:7ea95d7c-a685-a348-b4cc-b46542834c3b</stEvt:instanceID>
                  <stEvt:when>2015-05-16T18:58:26+02:00</stEvt:when>
                  <stEvt:softwareAgent>Adobe Audition CC (Windows)</stEvt:softwareAgent>
                  <stEvt:changed>/metadata</stEvt:changed>
               </rdf:li>
               <rdf:li rdf:parseType="Resource">
                  <stEvt:action>saved</stEvt:action>
                  <stEvt:instanceID>xmp.iid:3004696b-e11b-7e47-9b1f-374b854ac156</stEvt:instanceID>
                  <stEvt:when>2015-05-16T18:58:26+02:00</stEvt:when>
                  <stEvt:softwareAgent>Adobe Audition CC (Windows)</stEvt:softwareAgent>
                  <stEvt:changed>/</stEvt:changed>
               </rdf:li>
               <rdf:li rdf:parseType="Resource">
                  <stEvt:action>saved</stEvt:action>
                  <stEvt:instanceID>xmp.iid:5ee6edf8-c0f0-c644-bfc7-c994eb1e4f26</stEvt:instanceID>
                  <stEvt:when>2015-05-16T19:08:47+02:00</stEvt:when>
                  <stEvt:softwareAgent>Adobe Audition CC (Windows)</stEvt:softwareAgent>
                  <stEvt:changed>/metadata</stEvt:changed>
               </rdf:li>
               <rdf:li rdf:parseType="Resource">
                  <stEvt:action>saved</stEvt:action>
                  <stEvt:instanceID>xmp.iid:c2817bdf-940f-5b4e-b389-f97d5ebf64fd</stEvt:instanceID>
                  <stEvt:when>2015-05-16T19:08:47+02:00</stEvt:when>
                  <stEvt:softwareAgent>Adobe Audition CC (Windows)</stEvt:softwareAgent>
                  <stEvt:changed>/</stEvt:changed>
               </rdf:li>
               <rdf:li rdf:parseType="Resource">
                  <stEvt:action>saved</stEvt:action>
                  <stEvt:instanceID>xmp.iid:d4125887-6cd0-3142-881a-bf423dff1bee</stEvt:instanceID>
                  <stEvt:when>2015-05-16T19:18:47+02:00</stEvt:when>
                  <stEvt:softwareAgent>Adobe Audition CC (Windows)</stEvt:softwareAgent>
                  <stEvt:changed>/metadata</stEvt:changed>
               </rdf:li>
               <rdf:li rdf:parseType="Resource">
                  <stEvt:action>saved</stEvt:action>
                  <stEvt:instanceID>xmp.iid:399f5a15-8990-3a4b-b149-39c02548c9fe</stEvt:instanceID>
                  <stEvt:when>2015-05-16T19:18:47+02:00</stEvt:when>
                  <stEvt:softwareAgent>Adobe Audition CC (Windows)</stEvt:softwareAgent>
                  <stEvt:changed>/</stEvt:changed>
               </rdf:li>
               <rdf:li rdf:parseType="Resource">
                  <stEvt:action>saved</stEvt:action>
                  <stEvt:instanceID>xmp.iid:65b78614-4d1a-8146-b855-8f31695fe969</stEvt:instanceID>
                  <stEvt:when>2015-05-16T19:42:47+02:00</stEvt:when>
                  <stEvt:softwareAgent>Adobe Audition CC (Windows)</stEvt:softwareAgent>
                  <stEvt:changed>/metadata</stEvt:changed>
               </rdf:li>
               <rdf:li rdf:parseType="Resource">
                  <stEvt:action>saved</stEvt:action>
                  <stEvt:instanceID>xmp.iid:b37e69cd-6509-8146-beaa-2be15501ad0f</stEvt:instanceID>
                  <stEvt:when>2015-05-16T19:42:47+02:00</stEvt:when>
                  <stEvt:softwareAgent>Adobe Audition CC (Windows)</stEvt:softwareAgent>
                  <stEvt:changed>/</stEvt:changed>
               </rdf:li>
               <rdf:li rdf:parseType="Resource">
                  <stEvt:action>saved</stEvt:action>
                  <stEvt:instanceID>xmp.iid:dd70764b-d9a7-f94b-8c5e-94916f59752e</stEvt:instanceID>
                  <stEvt:when>2015-05-16T21:39:47+02:00</stEvt:when>
                  <stEvt:softwareAgent>Adobe Audition CC (Windows)</stEvt:softwareAgent>
                  <stEvt:changed>/metadata</stEvt:changed>
               </rdf:li>
               <rdf:li rdf:parseType="Resource">
                  <stEvt:action>saved</stEvt:action>
                  <stEvt:instanceID>xmp.iid:87316c4e-12be-224a-b6e7-35f412ff38c4</stEvt:instanceID>
                  <stEvt:when>2015-05-16T21:39:47+02:00</stEvt:when>
                  <stEvt:softwareAgent>Adobe Audition CC (Windows)</stEvt:softwareAgent>
                  <stEvt:changed>/</stEvt:changed>
               </rdf:li>
               <rdf:li rdf:parseType="Resource">
                  <stEvt:action>saved</stEvt:action>
                  <stEvt:instanceID>xmp.iid:6164e022-5ac5-9b4f-9018-cc5e578bbe1a</stEvt:instanceID>
                  <stEvt:when>2015-05-16T21:51:17+02:00</stEvt:when>
                  <stEvt:softwareAgent>Adobe Audition CC (Windows)</stEvt:softwareAgent>
                  <stEvt:changed>/metadata</stEvt:changed>
               </rdf:li>
               <rdf:li rdf:parseType="Resource">
                  <stEvt:action>saved</stEvt:action>
                  <stEvt:instanceID>xmp.iid:9d0a9cfc-1d6c-3749-ba40-c0e3d404a7f3</stEvt:instanceID>
                  <stEvt:when>2015-05-16T21:51:17+02:00</stEvt:when>
                  <stEvt:softwareAgent>Adobe Audition CC (Windows)</stEvt:softwareAgent>
                  <stEvt:changed>/</stEvt:changed>
               </rdf:li>
               <rdf:li rdf:parseType="Resource">
                  <stEvt:action>saved</stEvt:action>
                  <stEvt:instanceID>xmp.iid:43d6621a-f499-eb4b-ac0a-18601dd2f36c</stEvt:instanceID>
                  <stEvt:when>2015-05-16T22:01:47+02:00</stEvt:when>
                  <stEvt:softwareAgent>Adobe Audition CC (Windows)</stEvt:softwareAgent>
                  <stEvt:changed>/metadata</stEvt:changed>
               </rdf:li>
               <rdf:li rdf:parseType="Resource">
                  <stEvt:action>saved</stEvt:action>
                  <stEvt:instanceID>xmp.iid:8d359a2c-98b1-b04e-adfd-2a4acc6e97b0</stEvt:instanceID>
                  <stEvt:when>2015-05-16T22:01:47+02:00</stEvt:when>
                  <stEvt:softwareAgent>Adobe Audition CC (Windows)</stEvt:softwareAgent>
                  <stEvt:changed>/</stEvt:changed>
               </rdf:li>
               <rdf:li rdf:parseType="Resource">
                  <stEvt:action>saved</stEvt:action>
                  <stEvt:instanceID>xmp.iid:8324c830-39c5-3942-b729-07c6ec686b73</stEvt:instanceID>
                  <stEvt:when>2015-05-16T22:11:47+02:00</stEvt:when>
                  <stEvt:softwareAgent>Adobe Audition CC (Windows)</stEvt:softwareAgent>
                  <stEvt:changed>/metadata</stEvt:changed>
               </rdf:li>
               <rdf:li rdf:parseType="Resource">
                  <stEvt:action>saved</stEvt:action>
                  <stEvt:instanceID>xmp.iid:8fa26206-9c0b-c143-bbaf-65ffc2abb106</stEvt:instanceID>
                  <stEvt:when>2015-05-16T22:11:47+02:00</stEvt:when>
                  <stEvt:softwareAgent>Adobe Audition CC (Windows)</stEvt:softwareAgent>
                  <stEvt:changed>/</stEvt:changed>
               </rdf:li>
               <rdf:li rdf:parseType="Resource">
                  <stEvt:action>saved</stEvt:action>
                  <stEvt:instanceID>xmp.iid:be147349-7fd5-7441-908c-0f0ab4aef553</stEvt:instanceID>
                  <stEvt:when>2015-05-17T03:10:37+02:00</stEvt:when>
                  <stEvt:softwareAgent>Adobe Audition CC (Windows)</stEvt:softwareAgent>
                  <stEvt:changed>/metadata</stEvt:changed>
               </rdf:li>
               <rdf:li rdf:parseType="Resource">
                  <stEvt:action>saved</stEvt:action>
                  <stEvt:instanceID>xmp.iid:85029190-52bb-1b4d-8f3b-593a00e645b3</stEvt:instanceID>
                  <stEvt:when>2015-05-17T03:10:37+02:00</stEvt:when>
                  <stEvt:softwareAgent>Adobe Audition CC (Windows)</stEvt:softwareAgent>
                  <stEvt:changed>/</stEvt:changed>
               </rdf:li>
            </rdf:Seq>
         </xmpMM:History>
         <xmpMM:DerivedFrom rdf:parseType="Resource">
            <stRef:instanceID>xmp.iid:8324c830-39c5-3942-b729-07c6ec686b73</stRef:instanceID>
            <stRef:documentID>xmp.did:8d359a2c-98b1-b04e-adfd-2a4acc6e97b0</stRef:documentID>
            <stRef:originalDocumentID>xmp.did:480546e9-b1de-1045-952d-481962468364</stRef:originalDocumentID>
         </xmpMM:DerivedFrom>
         <dc:format>application/xml</dc:format>
         <xmpDM:Tracks>
            <rdf:Bag>
               <rdf:li rdf:parseType="Resource">
                  <xmpDM:trackName>CuePoint Markers</xmpDM:trackName>
                  <xmpDM:trackType>Cue</xmpDM:trackType>
                  <xmpDM:frameRate>f44100</xmpDM:frameRate>
               </rdf:li>
               <rdf:li rdf:parseType="Resource">
                  <xmpDM:trackName>CD Track Markers</xmpDM:trackName>
                  <xmpDM:trackType>Track</xmpDM:trackType>
                  <xmpDM:frameRate>f44100</xmpDM:frameRate>
               </rdf:li>
               <rdf:li rdf:parseType="Resource">
                  <xmpDM:trackName>Subclip Markers</xmpDM:trackName>
                  <xmpDM:trackType>InOut</xmpDM:trackType>
                  <xmpDM:frameRate>f44100</xmpDM:frameRate>
               </rdf:li>
            </rdf:Bag>
         </xmpDM:Tracks>
      </rdf:Description>
   </rdf:RDF>
</x:xmpmeta>
                                                                                                    
                                                                                                    
                                                                                                    
                                                                                                    
                                                                                                    
                                                                                                    
                                                                                                    
                                                                                                    
                                                                                                    
                                                                                                    
                                                                                                    
                                                                                                    
                                                                                                    
                                                                                                    
                                                                                                    
                                                                                                    
                                                                                                    
                                                                                                    
                                                                                                    
                                                                                                    
                           
<?xpacket end="w"?>]]></xmpMetadata>
    <clipGroups/>
    <metronome enabled="false" pattern="downBeat subdivision subdivision subdivision " soundSet="sticks">
      <metronomeTrack automationLaneOpenState="false" id="40000" index="0" select="false" visible="false">
        <trackParameters trackHeight="77" trackHue="-1,00">
          <name>Metronome</name>
        </trackParameters>
        <trackAudioParameters audioChannelType="mono" automationMode="1" monitoring="false" recordArmed="false" solo="false" soloSafe="true">
          <trackOutput outputID="10000" type="trackID"/>
          <trackInput inputID="-1"/>
          <component componentID="Audition.Fader" id="trackFader" name="volume" powered="true">
            <parameter index="0" name="volume" parameterValue="0.5011872"/>
            <parameter index="1" name="static gain" parameterValue="1"/>
          </component>
          <component componentID="Audition.Mute" id="trackMute" name="Mute" powered="true">
            <parameter index="0" parameterValue="0"/>
            <parameter index="1" name="mute" parameterValue="0"/>
          </component>
          <component componentID="Audition.StereoPanner" id="trackPan" name="StereoPanner" powered="true">
            <parameter index="0" name="Pan" parameterValue="0"/>
          </component>
          <component componentID="Audition.EQ" id="trackEQ" name="EQ" powered="false">
            <parameter index="0" name="Low Shelf Frequency" parameterValue="0.0009079"/>
            <parameter index="1" name="Low Shelf Gain" parameterValue="0.5"/>
            <parameter index="2" name="High Shelf Frequency" parameterValue="0.8161598"/>
            <parameter index="3" name="High Shelf Gain" parameterValue="0.5"/>
            <parameter index="4" name="EQ Band 1 Center Frequency" parameterValue="0.0013618"/>
            <parameter index="5" name="EQ Band 1 Q" parameterValue="0.0002"/>
            <parameter index="6" name="EQ Band 1 Gain" parameterValue="0.5"/>
            <parameter index="7" name="EQ Band 1 Enable" parameterValue="1"/>
            <parameter index="8" name="EQ Band 2 Center Frequency" parameterValue="0.0081707"/>
            <parameter index="9" name="EQ Band 2 Q" parameterValue="0.0002"/>
            <parameter index="10" name="EQ Band 2 Gain" parameterValue="0.5"/>
            <parameter index="11" name="EQ Band 2 Enable" parameterValue="1"/>
            <parameter index="12" name="EQ Band 3 Center Frequency" parameterValue="0.0354063"/>
            <parameter index="13" name="EQ Band 3 Q" parameterValue="0.0002"/>
            <parameter index="14" name="EQ Band 3 Gain" parameterValue="0.5"/>
            <parameter index="15" name="EQ Band 3 Enable" parameterValue="1"/>
            <parameter index="16" name="EQ Band 4 Center Frequency" parameterValue="0.1443486"/>
            <parameter index="17" name="EQ Band 4 Q" parameterValue="0.0002"/>
            <parameter index="18" name="EQ Band 4 Gain" parameterValue="0.5"/>
            <parameter index="19" name="EQ Band 4 Enable" parameterValue="1"/>
            <parameter index="20" name="EQ Band 5 Center Frequency" parameterValue="0.580118"/>
            <parameter index="21" name="EQ Band 5 Q" parameterValue="0.0002"/>
            <parameter index="22" name="EQ Band 5 Gain" parameterValue="0.5"/>
            <parameter index="23" name="EQ Band 5 Enable" parameterValue="1"/>
            <parameter index="24" name="Master Gain" parameterValue="0.6666667"/>
            <parameter index="25" name="ConstantQ" parameterValue="1"/>
            <parameter index="26" name="Low Shelf Filter Order" parameterValue="0"/>
            <parameter index="27" name="High Shelf Filter Order" parameterValue="0"/>
            <parameter index="28" name="Ultra-Quiet Mode" parameterValue="0"/>
            <parameter index="29" name="Low Shelf Enable" parameterValue="1"/>
            <parameter index="30" name="High Shelf Enable" parameterValue="1"/>
            <parameter index="31" name="Original Sample Rate" parameterValue="0.2296875"/>
            <parameter index="32" name="EQ Band 1 Bandwidth" parameterValue="0.0025"/>
            <parameter index="33" name="EQ Band 2 Bandwidth" parameterValue="0.01"/>
            <parameter index="34" name="EQ Band 3 Bandwidth" parameterValue="0.04"/>
            <parameter index="35" name="EQ Band 4 Bandwidth" parameterValue="0.16"/>
            <parameter index="36" name="EQ Band 5 Bandwidth" parameterValue="0.64"/>
            <parameter index="37" name="High-Pass Filter Enable" parameterValue="0"/>
            <parameter index="38" name="High-Pass Cutoff Frequency" parameterValue="0"/>
            <parameter index="39" name="High-Pass Slope" parameterValue="4"/>
            <parameter index="40" name="Low-Pass Filter Enable" parameterValue="0"/>
            <parameter index="41" name="Low-Pass Cutoff Frequency" parameterValue="0.906945"/>
            <parameter index="42" name="Low-Pass Slope" parameterValue="4"/>
            <parameter index="43" name="Bypass" parameterValue="0"/>
            <parameter index="44" name="LowGraphRange" parameterValue="1"/>
          </component>
        </trackAudioParameters>
        <editParameter parameterIndex="0" slotIndex="4294967280"/>
        <sendList>
          <sendSlot preFader="false" sendOutputID="0" slotIndex="0">
            <component id="sendComponent" powered="false">
              <parameter index="0" name="Power On/Off" parameterValue="0"/>
              <parameter index="1" name="Level" parameterValue="0"/>
            </component>
            <component id="sendPan" powered="true"/>
          </sendSlot>
          <sendSlot preFader="false" sendOutputID="0" slotIndex="1">
            <component id="sendComponent" powered="false">
              <parameter index="0" name="Power On/Off" parameterValue="0"/>
              <parameter index="1" name="Level" parameterValue="0"/>
            </component>
            <component id="sendPan" powered="true"/>
          </sendSlot>
          <sendSlot preFader="false" sendOutputID="0" slotIndex="2">
            <component id="sendComponent" powered="false">
              <parameter index="0" name="Power On/Off" parameterValue="0"/>
              <parameter index="1" name="Level" parameterValue="0"/>
            </component>
            <component id="sendPan" powered="true"/>
          </sendSlot>
          <sendSlot preFader="false" sendOutputID="0" slotIndex="3">
            <component id="sendComponent" powered="false">
              <parameter index="0" name="Power On/Off" parameterValue="0"/>
              <parameter index="1" name="Level" parameterValue="0"/>
            </component>
            <component id="sendPan" powered="true"/>
          </sendSlot>
          <sendSlot preFader="false" sendOutputID="0" slotIndex="4">
            <component id="sendComponent" powered="false">
              <parameter index="0" name="Power On/Off" parameterValue="0"/>
              <parameter index="1" name="Level" parameterValue="0"/>
            </component>
            <component id="sendPan" powered="true"/>
          </sendSlot>
          <sendSlot preFader="false" sendOutputID="0" slotIndex="5">
            <component id="sendComponent" powered="false">
              <parameter index="0" name="Power On/Off" parameterValue="0"/>
              <parameter index="1" name="Level" parameterValue="0"/>
            </component>
            <component id="sendPan" powered="true"/>
          </sendSlot>
          <sendSlot preFader="false" sendOutputID="0" slotIndex="6">
            <component id="sendComponent" powered="false">
              <parameter index="0" name="Power On/Off" parameterValue="0"/>
              <parameter index="1" name="Level" parameterValue="0"/>
            </component>
            <component id="sendPan" powered="true"/>
          </sendSlot>
          <sendSlot preFader="false" sendOutputID="0" slotIndex="7">
            <component id="sendComponent" powered="false">
              <parameter index="0" name="Power On/Off" parameterValue="0"/>
              <parameter index="1" name="Level" parameterValue="0"/>
            </component>
            <component id="sendPan" powered="true"/>
          </sendSlot>
          <sendSlot preFader="false" sendOutputID="0" slotIndex="8">
            <component id="sendComponent" powered="false">
              <parameter index="0" name="Power On/Off" parameterValue="0"/>
              <parameter index="1" name="Level" parameterValue="0"/>
            </component>
            <component id="sendPan" powered="true"/>
          </sendSlot>
          <sendSlot preFader="false" sendOutputID="0" slotIndex="9">
            <component id="sendComponent" powered="false">
              <parameter index="0" name="Power On/Off" parameterValue="0"/>
              <parameter index="1" name="Level" parameterValue="0"/>
            </component>
            <component id="sendPan" powered="true"/>
          </sendSlot>
          <sendSlot preFader="false" sendOutputID="0" slotIndex="10">
            <component id="sendComponent" powered="false">
              <parameter index="0" name="Power On/Off" parameterValue="0"/>
              <parameter index="1" name="Level" parameterValue="0"/>
            </component>
            <component id="sendPan" powered="true"/>
          </sendSlot>
          <sendSlot preFader="false" sendOutputID="0" slotIndex="11">
            <component id="sendComponent" powered="false">
              <parameter index="0" name="Power On/Off" parameterValue="0"/>
              <parameter index="1" name="Level" parameterValue="0"/>
            </component>
            <component id="sendPan" powered="true"/>
          </sendSlot>
          <sendSlot preFader="false" sendOutputID="0" slotIndex="12">
            <component id="sendComponent" powered="false">
              <parameter index="0" name="Power On/Off" parameterValue="0"/>
              <parameter index="1" name="Level" parameterValue="0"/>
            </component>
            <component id="sendPan" powered="true"/>
          </sendSlot>
          <sendSlot preFader="false" sendOutputID="0" slotIndex="13">
            <component id="sendComponent" powered="false">
              <parameter index="0" name="Power On/Off" parameterValue="0"/>
              <parameter index="1" name="Level" parameterValue="0"/>
            </component>
            <component id="sendPan" powered="true"/>
          </sendSlot>
          <sendSlot preFader="false" sendOutputID="0" slotIndex="14">
            <component id="sendComponent" powered="false">
              <parameter index="0" name="Power On/Off" parameterValue="0"/>
              <parameter index="1" name="Level" parameterValue="0"/>
            </component>
            <component id="sendPan" powered="true"/>
          </sendSlot>
          <sendSlot preFader="false" sendOutputID="0" slotIndex="15">
            <component id="sendComponent" powered="false">
              <parameter index="0" name="Power On/Off" parameterValue="0"/>
              <parameter index="1" name="Level" parameterValue="0"/>
            </component>
            <component id="sendPan" powered="true"/>
          </sendSlot>
        </sendList>
      </metronomeTrack>
    </metronome>
  </session>

  <files>
    <file absolutePath="D:\Spel\Unity\Blindskrift\Assets\Sound\Taps\Taps\Taps_Recorded\Plast taps_005.wav" id="0" mediaHandler="AmioWav" relativePath="Taps_Recorded/Plast taps_005.wav"/>
    <file absolutePath="D:\Spel\Unity\Blindskrift\Assets\Sound\Taps\Taps\Taps_Recorded\Plast dra_006.wav" id="1" mediaHandler="AmioWav" relativePath="Taps_Recorded/Plast dra_006.wav"/>
    <file absolutePath="D:\Spel\Unity\Blindskrift\Assets\Sound\Ambience\Fläkt.ogg" id="2" mediaHandler="AmioLSF" relativePath="../../Ambience/Fläkt.ogg"/>
    <file absolutePath="D:\Spel\Unity\Blindskrift\Assets\Sound\Taps\Taps\Taps_Recorded\Metall tap_009.wav" id="3" mediaHandler="AmioWav" relativePath="Taps_Recorded/Metall tap_009.wav"/>
    <file absolutePath="D:\Spel\Unity\Blindskrift\Assets\Sound\Taps\Taps\Taps_Recorded\Metall dra_010.wav" id="4" mediaHandler="AmioWav" relativePath="Taps_Recorded/Metall dra_010.wav"/>
    <file absolutePath="D:\Spel\Unity\Blindskrift\Assets\Sound\Taps\Taps\Taps_Recorded\Knapptryckningar_011.wav" id="5" mediaHandler="AmioWav" relativePath="Taps_Recorded/Knapptryckningar_011.wav"/>
    <file absolutePath="D:\Spel\Unity\Blindskrift\Assets\Sound\Taps\Taps\Taps_Recorded\Knapptryckningar_012.wav" id="6" mediaHandler="AmioWav" relativePath="Taps_Recorded/Knapptryckningar_012.wav"/>
    <file absolutePath="D:\Spel\Unity\Blindskrift\Assets\Sound\Taps\Taps\Taps_Recorded\Papper tap_014.wav" id="7" mediaHandler="AmioWav" relativePath="Taps_Recorded/Papper tap_014.wav"/>
    <file absolutePath="D:\Spel\Unity\Blindskrift\Assets\Sound\Taps\Taps\Taps_Recorded\Papper dra_015.wav" id="8" mediaHandler="AmioWav" relativePath="Taps_Recorded/Papper dra_015.wav"/>
    <file absolutePath="D:\Spel\Unity\Blindskrift\Assets\Sound\Taps\Taps\Taps_Recorded\Papper dra_016.wav" id="9" mediaHandler="AmioWav" relativePath="Taps_Recorded/Papper dra_016.wav"/>
    <file absolutePath="D:\Spel\Unity\Blindskrift\Assets\Sound\Paper\Scratch paper.ogg" id="10" mediaHandler="AmioLSF" relativePath="../../Paper/Scratch paper.ogg"/>
    <file absolutePath="D:\Spel\Unity\Blindskrift\Assets\Sound\Taps\Taps\Taps_Recorded\Papper tap_018.wav" id="11" mediaHandler="AmioWav" relativePath="Taps_Recorded/Papper tap_018.wav"/>
    <file absolutePath="D:\Spel\Unity\Blindskrift\Assets\Sound\Taps\Taps\Taps_Recorded\Papper tap_019.wav" id="12" mediaHandler="AmioWav" relativePath="Taps_Recorded/Papper tap_019.wav"/>
    <file absolutePath="D:\Spel\Unity\Blindskrift\Assets\Sound\Taps\Taps\Taps_Recorded\Papper break_020.wav" id="13" mediaHandler="AmioWav" relativePath="Taps_Recorded/Papper break_020.wav"/>
    <file absolutePath="D:\Spel\Unity\Blindskrift\Assets\Sound\Taps\Taps\Taps_Recorded\Plast taps_021.wav" id="14" mediaHandler="AmioWav" relativePath="Taps_Recorded/Plast taps_021.wav"/>
    <file absolutePath="D:\Spel\Unity\Blindskrift\Assets\Sound\Taps\Taps\Taps_Recorded\Plast taps_022.wav" id="15" mediaHandler="AmioWav" relativePath="Taps_Recorded/Plast taps_022.wav"/>
    <file absolutePath="D:\Spel\Unity\Blindskrift\Assets\Sound\Taps\Taps\Taps_Recorded\Plast taps_023.wav" id="16" mediaHandler="AmioWav" relativePath="Taps_Recorded/Plast taps_023.wav"/>
    <file absolutePath="D:\Spel\Unity\Blindskrift\Assets\Sound\Taps\Taps\Taps_Recorded\Knap dra_024.wav" id="17" mediaHandler="AmioWav" relativePath="Taps_Recorded/Knap dra_024.wav"/>
    <file absolutePath="D:\Spel\Unity\Blindskrift\Assets\Sound\Taps\Taps\Taps_Recorded\Knap dra_025.wav" id="18" mediaHandler="AmioWav" relativePath="Taps_Recorded/Knap dra_025.wav"/>
    <file absolutePath="D:\Spel\Unity\Blindskrift\Assets\Sound\Taps\Taps\Taps_Recorded\Knap dra_026.wav" id="19" mediaHandler="AmioWav" relativePath="Taps_Recorded/Knap dra_026.wav"/>
    <file absolutePath="D:\Spel\Unity\Blindskrift\Assets\Sound\Taps\Taps\Taps_Recorded\Knap dra_027.wav" id="20" mediaHandler="AmioWav" relativePath="Taps_Recorded/Knap dra_027.wav"/>
    <file absolutePath="D:\Spel\Unity\Blindskrift\Assets\Sound\Taps\Taps\Taps_Recorded\Knap dra_028.wav" id="21" mediaHandler="AmioWav" relativePath="Taps_Recorded/Knap dra_028.wav"/>
    <file absolutePath="D:\Spel\Unity\Blindskrift\Assets\Sound\Taps\Taps\Taps_Recorded\Knap dra_029.wav" id="22" mediaHandler="AmioWav" relativePath="Taps_Recorded/Knap dra_029.wav"/>
    <file absolutePath="D:\Spel\Unity\Blindskrift\Assets\Sound\Taps\Taps\Taps_Recorded\Knap dra_030.wav" id="23" mediaHandler="AmioWav" relativePath="Taps_Recorded/Knap dra_030.wav"/>
    <file absolutePath="D:\Spel\Unity\Blindskrift\Assets\Sound\Taps\Taps\Taps_Recorded\Knap dra_031.wav" id="24" mediaHandler="AmioWav" relativePath="Taps_Recorded/Knap dra_031.wav"/>
    <file absolutePath="D:\Spel\Unity\Blindskrift\Assets\Sound\Taps\Taps\Taps_Recorded\Knap dra_032.wav" id="25" mediaHandler="AmioWav" relativePath="Taps_Recorded/Knap dra_032.wav"/>
    <file absolutePath="D:\Spel\Unity\Blindskrift\Assets\Sound\Taps\Taps\Taps_Recorded\Plast taps_033.wav" id="26" mediaHandler="AmioWav" relativePath="Taps_Recorded/Plast taps_033.wav"/>
  </files>

  <audioDevice inputID="E8C9E202-24D2-41BE-B439-2556A7A91B63" outputID="DC51D9A6-A4B9-4098-8767-BB2D0B05DD7C">
    <inputPort id="1" name="Default Stereo Input"/>
    <inputPort id="2" name="[01M] Microphone (USB Audio Device) 1"/>
    <inputPort id="3" name="[02M] Microphone (USB Audio Device) 2"/>
    <inputPort id="4" name="[01S] Microphone (USB Audio Device) 1"/>
    <outputPort id="1" name="Default Output"/>
    <outputPort id="2" name="[01M] Speakers (Realtek High Definition Audio) 1"/>
    <outputPort id="3" name="[02M] Speakers (Realtek High Definition Audio) 2"/>
    <outputPort id="4" name="Default Stereo Output"/>
    <outputPort id="5" name="[01S] Speakers (Realtek High Definition Audio) 1"/>
    <outputPort id="6" name="Default Surround Output"/>
  </audioDevice>

</sesx>
